<mxfile host="app.diagrams.net" modified="2020-10-29T13:45:47.186Z" agent="5.0 (Windows NT 10.0; Win64; x64) AppleWebKit/537.36 (KHTML, like Gecko) Chrome/86.0.4240.111 Safari/537.36" etag="RFdzN1PJj4bHv04flAIH" version="13.8.5" type="github">
  <diagram id="ThF9IHKrfaqcvJeQHL08" name="Page-1">
    <mxGraphModel dx="698" dy="508" grid="1" gridSize="10" guides="1" tooltips="1" connect="1" arrows="1" fold="1" page="1" pageScale="1" pageWidth="827" pageHeight="1169" math="0" shadow="0">
      <root>
        <mxCell id="0" />
        <mxCell id="1" parent="0" />
        <mxCell id="6dEc_MFM6eOQR3-UoOiC-1" value="Player1" style="shape=umlActor;verticalLabelPosition=bottom;verticalAlign=top;html=1;outlineConnect=0;" parent="1" vertex="1">
          <mxGeometry x="135" y="100" width="30" height="60" as="geometry" />
        </mxCell>
        <mxCell id="6dEc_MFM6eOQR3-UoOiC-2" value="Player2" style="shape=umlActor;verticalLabelPosition=bottom;verticalAlign=top;html=1;outlineConnect=0;" parent="1" vertex="1">
          <mxGeometry x="135" y="310" width="30" height="60" as="geometry" />
        </mxCell>
        <mxCell id="6dEc_MFM6eOQR3-UoOiC-3" value="" style="shape=image;imageAspect=0;aspect=fixed;verticalLabelPosition=bottom;verticalAlign=top;image=data:image/png,iVBORw0KGgoAAAANSUhEUgAAAlkAAAJZCAMAAACtJtB1AAAAHlBMVEVHcEwAg/0Ag/0Ag/0Ag/0Ag/0Ag/0Ag/0Ag/0Ag/0PO1w5AAAACXRSTlMA8c4woxODRGXnaMs2AAAUIElEQVR42uzd7XLjOA6FYZGWZPP+b3izvTPpdG8+JBIkDsj3/Juqrpo4fAKCEG1vGyGEEEIIIYQQQgghhBBCCCGEEEIIIYQQQgghhBBCCCGEEEIIIYQQQgghhBBCCCGEEEIIIYQQQgghhBBCCCGEEEIIIYQQQgghhBBCCCGEEEIIIYQQQgghhBBCxud4vud1nufr938e/HLIrbyheSOU857LJ0l//md++3dv//r5fPCLI18Vp9e55/yFoC+TPirb32oapYy8F6nX+Y+oq5y+V/YLGL/WpfN4/mOqkdSnzPaT+rXm5nfm1AHUnwUMXoupev3qznu6+qPL39G1RK3aR4n6WL7y+eJ3P3Nfdebil3xSuuY8Au4pFc+8/d/TydxrPlZFI+CaaROUYQUueqvePdeLniv6LlhUszOnjzthOFNRDoUrqKt93DC0vuPCFttgr00RW6Fc5RInOyfFMMfBLL8N/tVwUbeoV+yJC/ftqRRsEes5QwmbdLJ+snmlEjmZ2alq4x4bFsdENsKOWyIXBOVOhKnMkUzZEitYs8gqhU6egkXZmjwzFSy6LaGdMJf5wtyUnbBX2WJHdM5eZg07omtymTc7y+s3dU9pYllcrpm4xUo0Wyvm1X9pH960eEY9ae++edOij5/0ULj50+JZz5Tj0U2AFkfEGefuG7SA1U0WtIDVSZY/rcyaTwarbBq0ErQmg1U2EVpsiJPBKhu0gNVXFrQYkHaSxcgUWJ1k8aBn6ryKnyxoAauTLP/hA5dqOmX8ym5itLgK2OdYOH5dNzFa3DLtEoc775saLWYP8Y+Fn8typ0UXH797/1yWOy3uL1t370VEljctuvjID3W+leVMi3sP8Zusr2R5Vy0e80Rvsr6U5U2LVivyJOtbWc60mGpFnmR9L8uZFlMto/h9tu0mSov9MPDA4QdZvrQYPcTeC7+V5UuL/TD0Xvi9LF9a7Ift58KiKsuVFvth5L3wJ1mutJiXBp2RXpLlSov9MOaM9JosT1o8Pwzbvl+R5UmLq1oxR1kXZTnSoomP2r5fk+VIi6FWffueAshypMW7xKKWrGuy/GjRxMds3y/LcqPFh3qHnDjckOVGi6IVtGRdluVGi8lDzJJ1XZYXLYpWRRS+X26Tp0XRul+ySixZTrQoWiFL1i1ZTrQoWhFL1j1ZPrQSVgKWrJuyXGglilbAknVXlgstOq1os6waWS60KFrBZllVsjxoUbTilawKWR60eHp4PTmuLAdaFK3LeZXAshxocU8rWsmqkzWeFpdLL+ZZYssaT4sb8ZGmpA2yhtPiba2RpqQtskbToocPNXJokTWaFoOHUP17i6zBtOjhI40c2mQNpsXgIVL/3iZrLC16+Ej9e6OsobTo4UNtho2yhtKih/8paSJZI2nRw/+0FmUmWSNpMYeP078byBpIiwuAgTbDsgWiRQ//bZ5lNlnjaLEdxtkMTWQNo8VIK85maCNrFC22wyjDLDNZo2ixHYbZDK1kDaLF6TDGkx1LWWNosR1GORkayhpDiwsPUTZDQ1lDaLEdBjkZmsoaQYvtMMpmaCprBC1Oh0E2Q1tZA2ixHX6ePLms/rS4SvP5773MLqs/LRRFGMD3WKjetLhZGmMz7FACOtNiO4wwgL8k6yFFK/F5uCFmDldknbtW1WLuEGHmcElW0aLF3OGTAXyKKUuL1k7RitBmXZOlRQtJAWYOV2VJ0WLu8HfJ2gPLUqLFbfj/a7MiyxKixX0H/Uc7d2TJ0Eo0WhHarBuydKoWjZb+NOuWLBlaNFqd26ycBstSoUWj1bfNyofFut2SpUGLRqtvm5UPk3W7J0ukatFodWyz8mGzbjdladDi0eEfbVayh2WwbndlSdDijtbHCXzpAat93W7LUqDFHa0PefaB1bxu92Up0OK6wzfrYwSrdd1qfnJ/WjRav5NTJ1iN61b1N+FOi1np75RusNrWra7aetNiVtphTpoP03Wr3Me9aSHKfE6aD9t1q+0QnWnxaUfWDXw+jNet+kf3pUUL/97A94VVv271fxSutGjhbRv4fJivW0O59aRFC2/awOfDft1aNnJPWpgynMDno8O6NbWIjrRo4e0a+Hz0WLe2n92PFhdpzCbw+eiybo1/FW60aOGtjob56LNurfXWiVaihf+VYxCsinVr3smdaCHLpoHPR691a+8RnWhxkcbi2U4+uq2bwenDhxYtvMHRMB/91s3ih3ehxfOd9gY+Hx3XzeTPwoMWh8P/Jg2VdWvdbAquAy1aeIOjYU9aRlv5eFrIGns0vL1uVk3ieFq4srj214+W2fFjOC0OhyZPDbvRMvvp0zFYFodDm/ft9KJlJSs9BsPicLgZXSjtRMtI1nhYvAV/G3GhtH7xbGQ5wOJwaPeRDl1omcjygMXh0PAjHXrQspDlA4tn0oafydaBloEsJ1iMHSw/LMSeVvuP7wULWaaf9mdOq1mWGyzGDrbfxGpNq1WWHyzGDlspwrQaZTnC4iq8sSxjWm2yHGEx0LL/jl9TWk2yXGEx0LL/9mhLWi2ynGEtP9Dq8E1OhrQaZHnDWn7scBZlWvU/vzus5WV1+Y4wM1rVsvxhLT/QykWZVq0sAVjIKsq0KmUpwFp+oFWKMq06WQqwGGgVaVpVsjRgrS7rWaRp1cgSgbX6qLSjLAtaFbJkYC0+Ku36lffttO7L0oG1+EDrLNK0br8AIVjIUqZ19wUowVr8zax7kaZ1U5YUrMVHpblI07p3BNGCtbis3jWrYqzzcblvyRKDtfh95dI/LR8Dc0eWGqzFR6VFm9YNWXKwErKEaV2XJQfr7UdiBK9L68K/lIW19uOdQbKqaV19BZKwkCVM6+Ir0IS19HfRvYo2rWuyRGEt/XjnLNq0LslShYUsYVpXZMnCQpYwrSv/RhbW0o93ctGmdeGf6MJCljAt+wyEtbSsvSxGayQsatZCtIbCWvqRdClL0RoLa+lrNGUpWoNhUbNWoTUaFrIWoTUc1sqPpB9lHVoOsBaW9SzL0PKAhawFaLnAQtb8tHxgIWt6Wk6wFr7s8CpL0PKCtbCss6xAyw0Wsuam5QcLWVPTcoS18FssnGWNoOUJi5o1MS1XWAt/gpa7rN60fGEtfPUvp7lpOcNaWNZeysy0vGGtXLPKzLTcYSFrTlr+sNgNp6QlAIuaNSMtBVicDSekJQGLmjUfLQ1YC7/FYi9z0hKBtfAbDnVqlukqqMBauGaVMiMtGVjImouWDqyFd8MyIS0hWNSsmWgpwUrImoeWEixq1kS0tGDRZ02zGGKwqFmz0FKDRZ81CS01WNSsSWjpwaLPmmJBBGFRs2agpQiLPksvty82HUnxZSBLbkWO2y/lNUntRZYYLE1a1KwJYCnSos+aApYiLWRNAUuQFn3WHLD0aFGzhFqTtg8z06JFnzUNLDVayJoGlhgt+qx5YGnRomZNBEuJFn3WVLCUaK0rK80IS4jWwu++TzPC0qG1bs3Kc8JSoZX4LJrZYKnQ4rNopoMlQovP/JsPlgYtPvNvQlgStPhs5RlhKdCiZk0JS4AWfdacsPxpsRtOCsud1rqyzslhedNC1rSwnGnxnazzwvKlhayJYbnSQtbMsDxpIWtqWI601pX1XAKWH63HsrIea8Byo3VQsyaH5UVrQ9bssJxoIWt+WD601pV1rAPLhda6sraFYDnQyshaAtZ4WshaBNZwWivLSkvBGk1rX1jW6EulyXsqPZTWfiwsazFYY2mdC9esPTys49ClhSxVWMeFFviZdWmtLOvUhnVh1PgsurReyFKFdUmWLq0nslRhXZMlS+uxsKynNqyLslRpPZGlCuuqLFFaG7JUYV2WpUlrZVmHNqzrsiRprSxr04Z1YW3er/Lr0crIkoV1o2YJ0lpbVpaGdUuWHK0dWbKw7slSo4UsXVg3ZYnROpeWdUrDuitLixaydGGV2zSUaD2RJQur3H8BQrQeS8t6SsOqkCVEC1m6sGpk6dBaGlbHxzsWsKpkydBaW9YmDatOlgitvLispAyrUpYGrX1xWX3ecWgEq1aWBK3lZSnDqpalQOtcXNaZhGHVyxKg9VpdljKsBlnutNJzcVlPZVgtstxpPZClC6tJljetxWGZj0pNYbXJ8qWVVpe1KcNqlOVJK+XlZWVhWK2yPGntyBKG1SzLkda5vKxTGFa7LD9aL2QJwzKQ5UbrubyspzAsC1letA5kCcMykeVEayPCsGxkudBi6GB0Q6sPLCNZHrSQZXNDqxMsK1kOtBg6mBwOe8EykzWeFkMHC1ndYNnJSsfgUs7QweBw2A+Wmaz733HQ+kn5DB3abzt0hGUlazwshg7tY4eesIxkjYfFTYf/dRRDn+nfgWUjy6FicdPB4ve494NlIssDFkMHk8Ph3g2WhSwXWBwNbQ6Hey9YBrJ8YHE0/JXHsK7iLqx2WU6wOBpaHA6v07oNq1mWEyyOhjbj5qu07sNqleVVsWjgjVr4a7QqYDXKcoPFU8N/YnLTbe8Aq02WHyyOhlaHwwu0qmA1yXKERQNv18L/RKsOVossT1g08O8tfG9albAaZHnC4tmO+S91N4ZVL8sVFkdD2xb+a1rVsKpl+cKigTdu4b+iVQ+rVpYzLJ7tWLfwn9NqgFUpyxsWDbx5C/8ZrRZYdbK8YdHAd/rV7nawqmS5w2IC36OF/5tWG6waWf6waOA/5NFpN2iEVSFLABYT+I9JXWi1wrovSwEWDXynFv43rWZYt2UpwGJO+ucCJXta7bDuypKARZvVaVb6TssA1k1ZGrCYk/aalf5Ly2KDvSVLBBZtVtdGa9gp61SDxZz0wlOSULJUYDEn7d1oDZYlA4s2668csWXpwKLNCtFoXZWlA4s2K0ajdfHHFoLFNCtGo3VNlhIs2qwBE61RsqRg0WYN/XV3lSUFi4eGn+QVU5YWLNqsT/IIKeulBYvv+A0ydwi36TNzCNJohXuRPNoJMncI99fDzCHI3CEaLGYOUbbDaC+QmUOUuUO0v5wHiD7NMbes/rDYDMPMHYLt9cwcwmyHwZpIBvBhxvCxYDGAj7Mdxjr2shnG2Q5jzVPYDONsh6FgsRkG2g5DTYDZDANth6EeLbAZBhqWRoLFmFRjHYbJGvaCeGYYaTuM9JfCM8MfkqaSNQ4Wm2Go7TDQi+E2aaiRVqC/Em6ThhppxYHFMOvnnLPIGrqvM8yKNdIKA4v+PVgPH+ZV0L9fyXMGWYP/POjfg/XwUWDRv0ebw0fZ0Jm/X+zhU3BZo2HRv4cbPMSAlejfww0eYpxtKVnxBg8xfnbuz8QrWiFgJUYO8QYPIaotJes/7Z3bcuQgDAWDjIH5/x9e32aMM5NkfcFIdnftwz6kKlNJRxIHsNfQGDWrRhunZBksWhbEIiW1WLQsLDwoWRaLlgGxKFkmi5aBqISSZbJo6ReLkmWzaOkPdylZNouWerHIsowWLe1iEb9vw5sxq9YnpWRto7ViVi2xhJK1kWDDrGq1lXNZm4uWs2BWNbE4l7WdZMCsetMgt1ftJg+qxSIk3UPUblY9sUgcLCcPmj8e47vlIV6xWIzvpod4xQWVy6umh3i9YpG+2+6HasUifTfeD9WuLYiyjPdDrWLRC633Q51iOaIs8/1QaczGutB8XqpTLHrhgf1QVJlVVywy0iNpNJlVVyxekHmFUUuhWAQOlxi1FIrFkHWJUUufWAxZBUYtp8Gs2mKRZBUgKjCrsliOJKsIobpZtW9ActrvKlO8MrGY3oshVc2qLRZXKq6zQFQlFsvComq5amYhFtlDEbOqi0XecCW19IhF3nCtWAuxbkU63yzEQq0iZiEWahUxC7FuNGu5E81CLFaIRcyqHjf8LVYbw0AkmbCiloUcq03ZxoQk5Nqtlpxilnax2rcP6HFr70bPCWrV34T+Q5M0lG6f+j7YxjR8XF5Yvlut8r925cdmhp+AC5l9bXCUrQOo/lTvugf9hqodvlnUBjYZDaUPKtOGXiwXP/9QUMvEHK90Ueh/kq9fN3NK0MCwpXLEGnbmf6pqzYMj85a2ek7thH/ehO7PQE72THXbyWvmSiT3dMStx/xCZ9LXwqyHm4UU+uEhHTHcrROOJaudB67YMWTxzatV8rpW1ojrNwqHfvcqSvI8lJHmJ9XIw1G0GOTXFqzRptcoJu4x/28uWlzJOKhsyX0K1vBSUff1VrP66Pi5Jnzw0EmmrWxJ+L9ZwaIk+dysMOtG8MAicfUxhZB3TcmPVcdPXwG7sy3LbsmKp/ktzXLzBC/ZVzDCH9oS3dUb4TPNiotpviP0f1YxM4sRnlXi8ijM/9WsmM9ZfUzaJ6XpC7Nwa7tX73PW2E7zOY1uiFvrvfo0Z8Vv7/9lgr+7W1u8Gjzy39aGfqkSqcO9Z3kJ23b3FknpmGc1y61CR1Jazi3tGYST7VVlsbsz5lmLmT3ysouiRMVN0fk9NWWxIz3mWf3xh5jVMcassrm80sK198ppm/W+ZwafBaUN24ZnyOW1TVzi9//W/Vy0XvuG8zFTT5p1v67o/CHvZMp6X5DJokbEP6csDv6dNc5HFZXrIK2mgf3HGxaOKevkyiWVI4ZDR59fb4XRC09PInytYnX4U2KGm6wf1OImax21uj/pIKdbVWSdNt6+f0uIH4hVszGmk8YuKWTVpFZfnhZx6xCyIFbtob5bVBWsVM6XfwhfmJYFw/dpplUKw7sOvVKQo8uXSEgnve6ZJ7Mpp0nBH1DARLo6dfIrxJt8613wSmsFi6FTbOUM1vnkQ2dUW/HvYvgMiQ0dG5LF6ZHFvitny39+epZxPLtA/b7qBYNRBQAAAAAAAAAAAAAAAAAAAAAAAAAAAAAAAAAAAAAAAAAAAAAAAAAAAAAAAAAAAAAAAAAAAAAAAAAAAAAAAAAAAAAAAAAAAACs5R+kAgHyaasyjAAAAABJRU5ErkJggg==;" parent="1" vertex="1">
          <mxGeometry y="210" width="65" height="65" as="geometry" />
        </mxCell>
        <mxCell id="6dEc_MFM6eOQR3-UoOiC-4" value="" style="endArrow=classic;startArrow=classic;html=1;exitX=0.5;exitY=0;exitDx=0;exitDy=0;exitPerimeter=0;" parent="1" source="6dEc_MFM6eOQR3-UoOiC-2" target="6dEc_MFM6eOQR3-UoOiC-1" edge="1">
          <mxGeometry width="50" height="50" relative="1" as="geometry">
            <mxPoint x="365" y="230" as="sourcePoint" />
            <mxPoint x="415" y="180" as="targetPoint" />
            <Array as="points">
              <mxPoint x="150" y="210" />
            </Array>
          </mxGeometry>
        </mxCell>
        <mxCell id="6dEc_MFM6eOQR3-UoOiC-6" value="Detect&lt;br&gt;Close&amp;nbsp;&lt;br&gt;Contact" style="text;html=1;strokeColor=none;fillColor=none;align=center;verticalAlign=middle;whiteSpace=wrap;rounded=0;" parent="1" vertex="1">
          <mxGeometry x="80" y="220" width="40" height="50" as="geometry" />
        </mxCell>
        <mxCell id="6dEc_MFM6eOQR3-UoOiC-9" value="" style="endArrow=classic;html=1;exitX=1;exitY=0.5;exitDx=0;exitDy=0;" parent="1" source="6dEc_MFM6eOQR3-UoOiC-3" edge="1">
          <mxGeometry width="50" height="50" relative="1" as="geometry">
            <mxPoint x="70" y="300" as="sourcePoint" />
            <mxPoint x="150" y="240" as="targetPoint" />
          </mxGeometry>
        </mxCell>
        <mxCell id="6dEc_MFM6eOQR3-UoOiC-10" value="" style="endArrow=classic;html=1;" parent="1" edge="1">
          <mxGeometry width="50" height="50" relative="1" as="geometry">
            <mxPoint x="150" y="240" as="sourcePoint" />
            <mxPoint x="285" y="130" as="targetPoint" />
          </mxGeometry>
        </mxCell>
        <mxCell id="6dEc_MFM6eOQR3-UoOiC-11" value="Deep Learning Model" style="rounded=1;whiteSpace=wrap;html=1;fontSize=16;" parent="1" vertex="1">
          <mxGeometry x="280" y="80" width="180" height="90" as="geometry" />
        </mxCell>
        <mxCell id="6dEc_MFM6eOQR3-UoOiC-12" value="" style="endArrow=classic;html=1;fontSize=16;" parent="1" edge="1">
          <mxGeometry width="50" height="50" relative="1" as="geometry">
            <mxPoint x="150" y="240" as="sourcePoint" />
            <mxPoint x="260" y="300" as="targetPoint" />
          </mxGeometry>
        </mxCell>
        <mxCell id="6dEc_MFM6eOQR3-UoOiC-24" style="rounded=0;orthogonalLoop=1;jettySize=auto;html=1;fontSize=16;exitX=-0.011;exitY=0.677;exitDx=0;exitDy=0;exitPerimeter=0;" parent="1" source="6dEc_MFM6eOQR3-UoOiC-13" edge="1">
          <mxGeometry relative="1" as="geometry">
            <mxPoint x="150" y="260" as="targetPoint" />
          </mxGeometry>
        </mxCell>
        <mxCell id="6dEc_MFM6eOQR3-UoOiC-13" value="Server" style="shape=image;imageAspect=0;aspect=fixed;verticalLabelPosition=bottom;verticalAlign=top;fontSize=16;image=data:image/jpeg,/9j/4AAQSkZJRgABAQAAAQABAAD/2wBDAAgGBgcGBQgHBwcJCQgKDBQNDAsLDBkSEw8UHRofHh0aHBwgJC4nICIsIxwcKDcpLDAxNDQ0Hyc5PTgyPC4zNDL/2wBDAQkJCQwLDBgNDRgyIRwhMjIyMjIyMjIyMjIyMjIyMjIyMjIyMjIyMjIyMjIyMjIyMjIyMjIyMjIyMjIyMjIyMjL/wAARCAIXAoADASIAAhEBAxEB/8QAHwAAAQUBAQEBAQEAAAAAAAAAAAECAwQFBgcICQoL/8QAtRAAAgEDAwIEAwUFBAQAAAF9AQIDAAQRBRIhMUEGE1FhByJxFDKBkaEII0KxwRVS0fAkM2JyggkKFhcYGRolJicoKSo0NTY3ODk6Q0RFRkdISUpTVFVWV1hZWmNkZWZnaGlqc3R1dnd4eXqDhIWGh4iJipKTlJWWl5iZmqKjpKWmp6ipqrKztLW2t7i5usLDxMXGx8jJytLT1NXW19jZ2uHi4+Tl5ufo6erx8vP09fb3+Pn6/8QAHwEAAwEBAQEBAQEBAQAAAAAAAAECAwQFBgcICQoL/8QAtREAAgECBAQDBAcFBAQAAQJ3AAECAxEEBSExBhJBUQdhcRMiMoEIFEKRobHBCSMzUvAVYnLRChYkNOEl8RcYGRomJygpKjU2Nzg5OkNERUZHSElKU1RVVldYWVpjZGVmZ2hpanN0dXZ3eHl6goOEhYaHiImKkpOUlZaXmJmaoqOkpaanqKmqsrO0tba3uLm6wsPExcbHyMnK0tPU1dbX2Nna4uPk5ebn6Onq8vP09fb3+Pn6/9oADAMBAAIRAxEAPwD1KGJY0xtUH2FOJx9OnFQieNsZJQ+h45qXeFUuTwO/pVgOzg4IpQRkjv6UxSG+ZckN78U4DB4HXrigQuT0A6UEhfmJxn3700kjGFyCecHGKUAnG7GQ2Rj0oEOHr1B7YoHIGOnY00lgyY+6c5p+RwMHnvjigA3fMFPU9MUgO19uTgjPPalLKMBj16UpK4y3A7mgBMhQWCEk9cDk0/pSYpOw9frQA7OVbHOOMCgxo4+ZQc96ABS8Y44oAh8mSM/u3J9QelCzur/vFIz3zkCp88nGcY9KaFXzNwAyV/OgAikR03RbcZwccc96kJ2kAA5zUH2ZRjazBvWjfcIRuVXXHzFTzmgCcnAGTz9aBgk8HjjmmRzI2ACAfRhzTz8wYK+D7HpQAKgJO4DA+6OvFO2jOeeKRWBB2nOODQx469s8GgBSQfYZpRuI7A56ULgqCOh6UuD26+tAAQxGBgHtmjgsTgE9PpVK71TT9OIlvb23gIGDvkA/SuZv/ih4ds9wimmu29IU4/M0rjO0JyOm76UgcHlctk44GcV5FqHxhu3yun6bDEvQNMxY/kMCuW1Dx74i1AFZNSkiQ/wQ/IP0oGe/XepWNjHuvbu3gU8HzJAM/nV23j+0RLJCyNE4yrKcgj2xXyjPcSXDFpZHkY93Yk/rXefDfxknhaS8bUHuXsGVFEcbbgjFvvbfp6UMD3k2G8DfIwwQflOKsLaxIcheT3rP0bxPo2vwCTTdQhnPdA2HH1U81rZHrSuBi6h4dtrrc8OIZD1wMq31H+FZfmahpREd1H5kI+6+en0P+NddwaR4w6lWUEHsaLgYdtdQXIzE/PdT1FTOVAAfv696ivPDyOTJaN5Mg5AHT/61Z/2u8sJVjvo2ZR0Yd/x707iNQBsfe4/vYpeDgA9aZBcw3C7opAV+vP4ipBnrk49COlMQZx7ZpGUsp6A9iRnFAYFd/O3sexpRyTwfTnvQA0DDHAOO59Sad378UN05ByOlDZBBC9Tyc0AIRnhueOaUAKnyrwOgoHIBK/hQuFBAPTt6UAKDkkYPHt1oxmkIy65BwOmD/Olz6GgBFDZIYA46H1pc4PTvjijP/wCukLADOaAAgshG4k+/FA+ZM5yeo9qd+FJtC5IABPX3oAQoCm0jK9wawtR0RluBfafK0F0nIdf5EdxW7yy9Fz29KXBGOc+9IaKWjeJBcyiy1BBbX3Zc/LL7qf6V0QORXL6jo9vqETb0w+chhwc9iD2NV7LxBNos6WGsy70biK4PXHo3+NJoZ2NFYdx4r0yEYjaW4P8A0xQn9azZPF13K22z0s59ZpP6LRYDrqK4s33ia8PDx26n/nnF/VqibRNRuyPtmozSA9QZT/IYFFgOtudUsbT/AI+LyCL2aQVlTeNNHjcRxyyXDkEgRRk5x7msyHwvYRsrkB2GcHA/nV6PS7SLkQhiBxuGaLCK0vjK6kOLPSmPPWaTH6DNV31PxPePtXy7ZCPvRxZx+LH+lbaoi8RoqgdcClYnJGT0znHAp2A5saRqt4zC/wBQmdeODMcH14GKmi8L2cT72ILgf3cfrW5wCeBk9fekJFMDPj0+zQYEIbtknPNWFjRF27V6ckDFSMR698fjTMYYnGD0NAhd3ODkUm8Ekc5HWg59cUxhuwrHlvQ46UAPZsDOKrXlrHfWjwyKrBhg57VMwXKkruIPGOooJOT3OaAOU0u4k0q/ayuGLRsMK5/iX1/CuqVv3YKkEdiD1rL1zTFvbcPH8s0XKN7+lV9B1Hz4xbTfLKhwAex9KANwYIGMcHnnvSMdo69fU0LgHAHNIeV6FeaAFznBHfrR0yfzppb58cfh/WkwcgZHXntQA4MGXIIppCkjPNHUkgHP0o64I6igBRjJ9f5UMoJznBpu75iMEnoSO1LuyuRg596ABsFgGA2+570xYuTtLRnnkf4VJzzzQvAwCTjpk0FDCJEbdtVyOpAwcU7z0wNwZCexFOCDOVyuO3QH8KAoI+bDH3oAdkFc5/GgEZAAPPtUJjZTmPKkdl6H86eHlXkqHH5EUEjidpBwcZ7ZNSbRiofPiAJZghzzu4qXGRjqKB2FGCpXOfXNJ8m3BI2t79aUHnGeR2zS/T8zQNh04A7cCjPUdGxzigDA6c+1BO5SFbB9c9KCRR36/lSgZP09aTrzwc9OKDnPH/6qADK7wp5xyPanYY5IJz79KNykgelI7pGpLuqj1JxQOw/njgn3oVdiY79z71i3/inRNPyLjUIg/dVbca5u9+KmmxFvsdtPOx6bvlFILHeNGknDAA1GQ8HSRdo7OcV5Df8AxO1q53LbJDbIfQbjXOXmv6vfn/SdQnYegfaPyFK4WPaZfF+mQJN9sc2zIdoDMp389Rzn8xWZffE/w9aArbC4vCOB5Ue1fzbH8q8XI75696Q/Wi4z0K/+LmoS7ksdPt4B2aRjI39BXK6h4z8Q6kCs+qThD/BEdg/SsMugPLDP500kn7qN+PH86QCSSPIxd2Zm/vMcn86iOTUhRz/dH05pDDnq7H8cUARFsdTimF89AT9BU4hUdFH5Uko2Rs/90E0AV8uWHAH1rRgDnTrsOmBmMZB4zk1VMfQ+4q9bsi2F5E4yzhdp7gg54qkwKkUktvMJYZHjkByHRiCPxFdzoPxZ8R6OVjunXUrccbZ+HA9mHP55rhwkijoJP0P+FIGTO0nax/hYYNKwH0RoPxY8OayUiuJm065bjZdcKT6Bxx+eK7eKVJUV43V0YZDKcgj2NfIRStbRPFGt+G5N2l6jNDHnmE/NGf8AgJ4/KiwH1Xj04qOWGOVCsqqynqCMivKfD/xptptkOvWbW79DcW+WT6leo/DNem6bqthq1otzp95Dcwn+KNs4+vpSAzLvQNjmaxkMbj+HJH5HtVZNQmt28m+iZT2YLz+Xf8K6gYNRT20VwhjmjVlPY07gZsciSp5kThh2IOaXJyCSB6g9aq3GiT2zmawlYH+4T/nP41HFqOx/KvEMTjjOOPxHancVi/jLZPbpigg8YwD700FXGQQVI4wacQcjpjvxTEAPOOfrikB5zgA9CaXjbng0hOASegGTQAfMemRzQGBOAQSODimPPCgy0qKccc/0qv8A2nbksIy8u1tjBF6Nx/iKALh60hxnDDj9Krme4f7ltgert/Sm7buTO6ZEA5IRc0AWhuB5HX0NMknii4aVQfTPNQNY7v8AWzSSE+rEYqRLWGIgrGnTnIzQAwX0eBgM5/2VNH2i4k2mK1bBP8bYqyPl7AemPSk4LjoSO/cUAVZEvpAMyxRDcOAuc+wPrUcmlxXBWWaVpiAQN2Mc9eKvAfKnQqDnDDkf/XoJBHt6YzQByrWMmhzm4ithc2p+/CRkr7p6/Suhsrq1vLUT2siGM8cfKQfQjsanfayDIJV+MGsW90ua0mN9priOX+NCMrJ7MP60DNw5JHUEcg0vG09v8aztO1aK+PlOrQXSf6yFzyPceoq6SNw2jJHrQA/0JFIcgckfWkyf8mk2jIOSMDAO71oEAUFeSW75NGelAOWz6ZHWjJyee9ADDjcTgdOtMByzZOfpjj2qb8OtRk4zntz1oAaRuGCMD0zUb8DIGSTipNvGMAHPUUhKnjrmgCI89cAeuf1pm8GPd909AWxkU9sgHAyOgwOabnYvt7CgAPIGRnjrRgf3QDRk5AxkdzSAbf8AGgAYqynIBHp1zXOa1YtZ3A1K1BwP9aoHb1+oroWYHjOCem080kiiUbGGVIORQMr2N4t/aq6thu+01a5GcfXp0rl0DaDqflZPkSkmMHpjuPzroftcDIreYDnnigLE2eefvHjpSMCBnAL44JqL7SmSFDtnphcUBpOiQhc8/MaBEp7cnr2NLk84/lUJFw4IDKn0GaDExB3zycdew/SgCU/KvNRGeNTgOoI6gEH+VJ9liJ3YDD/ayakWKNCSsagnqQKAH7yM4B4/WhT14H0FLwDzx6UZ5GV+b0FBQ7qeh4oH0/HFA5oOedoFAAM+wPf60vI5JH40clR2J/SkBO0E4A/OgLDmUEfdXn1qCS3LmN4pniwwLbQCHHoc9qsdOaHZYoyzsFUfxMQB+tAEeJFzlAw65HBpySqRgnDehrLm8T6RFJ5SXguZj/yytUMrfkuawvEXjv8AsGBGk0O8QyD92LnEe4euOTigDs84BPOR0Oc5pskixpmWRUGOckAV4LqnxO1u8nJs1i09CMEREsT9Sa5i91zU9QJN3qFxNns0hx+VAWPobUPGfh7SlK3GpQb1H3EO4/kK5W/+MemQ7hYWc9w3Zn+UZ/GvFMjPvRuAPYUmB6Hf/FbXrzctsIbRD/cG4/rWDca7qmokm71C4lz2LkD8hXPRvz3P0FXIS/YKPqaVwLgP50/dgZPH1qAKzdXP/ARiniJAc7cn1PNIBfOTOAd3+6M0b3P3Y8e7HFO6dKKAGYkJx5gH+6P8aXylI+bLfU06igBAoUYUAfSjFLRQAmKTFOooAZio7hf9Gl/3TU9RXP8Ax7Sf7p/lQAhX5B+FMuInlT5GdCrbsocGpX/1X4CtPTFtzdyrc52EYGPXNNCbsjHjupUwsu2Uf3sbW/wNW1WK4Uqpz6qwrZufDolthcQSJJltoUHDDnAqay0drCLa8f708sGHT2+lPUSkmc21o0Y/dOU/2TyPyNRuZYx+8jyP7ycj8utdXLaRScFcHtj09azbyyMS7wrOmM5UZIHuKZRiB0cZUhvoauabql9pN0LnT7uW2mH8UTYz9R0P41XlgjmXzE2sOzqeRVceYg4Ice/B/OlYD2Pwz8ZJFKW/iG33r0+1QDn/AIEv+Feradq9jq1ot1YXMVxCwzuRs4+vpXyVHKrELyH/ALrDBrTsL+6sHLW07xbuGCtgN9R3pNAfUdxq2n2o/f3kEZ9C4/lWLfeJNFnUp5c10R08uI/oTivO/CvijRLsrb6rALW4JwsoP7tvr/dr0q3tLJUzBFGQRkOPmB9waAOYe+1Rr1JNKgaOAAApL82efQVuvqd2k4iltkiDAfvS/wAufT2/GtMHAwMD6DtTJI0lXa65z144qiSBY710BaWNM9o14pPsK7mMs00obHys3A+gpn2ae1Ja1fKZ/wBW3I/+t+FSxXySMEkUwynjD9D9DQBKlrAhyIVzjqRUmOCBt5OelL7ntSDCgnHPXGc0AL1pGOASOT3xR1GQaTncCPyoAUEMAV5pcDHtSdMYH5UMQOvANAAPujuPQ9TQCT2AHp3zSjOe31pOcHce/agBcnn17ZpqNuTIDAHoCMGhyFGeMYpQQ3TPNAB1J4Ix0OetJkryf07UA8nnr7UuOe4A4oAzL/So7xUcHy7heY5E4Kn2P9KgtdWlt5Vs9VxHIeEnHCSfX0NbDE5CrxnvVe6tIr6IxyoCDwdw60DLHPODj04pvK8Bdx6njH5VhpLeaK5in8yex6K+cvEP6ituKZJoRJC4dG6MvOaBD8k/X0qMAAgZBJJI/rUjHAyTj61C00XQyKW9qAJCMjn+dM2AIFHAHODUZuc/6uN29PlxmgyTOMCHbn+83+FADwPm5zk9OaQjJ4wSPQU3ZcN1dV78LnFRvbmUBWnkxnscUAOcBSCzYzxiq7XERAYODg44Of5VKtpGgUbS2OpY5NOMKLjgAZ47UAV/PB+6jsfZab5kzYKRAH3arJXb+FM25HT6igCHFw33mVPoM037O23DTSvz0DYqwc+ozRtzjGBQBRu9OhuraSEqcuODkkg/0rK0W9a3naxugBIrfeI5PYGuj/H8Kxtb09p0F1AALiI8H+8PSgZrkZPP5UEBiRjkYJrO0jUFvbYKxxKvBB68VogEnPHvxQDFGBxTecnOT3FKepz0xSgZPfHWgQ3HXk8n1pcds9KUhepOaXGMngmgCMSL3+X6inqwY/Lz9Oazf7SQsVjR5B22/wD16jlW8u49ixrbbv4xIdw+lBRrbgM98e9OLBRuLKq9y3FZS2d8Yz5mpPvIwdqAf/rqW3gggwbrS0umH/LVpC5/75bigCVtStNxWN3uHH8ECGT+XGfxp+dVnAaDS/KU/wAd3Mqf+OjJrRg1XTseX5xgb/nnt8n+XH61fVVI81Yo/wDrpIcn8xmpbAwBpWp3Z/favsX/AJ52EGD/AN9PQvhDTCxe7tmvH679QuGY/l92ugLeZ1lZwOyJuH59aQRbukIOO8j7v0OTSApxQW9snlxusSYwEggCqP8AgSj+teR/Gxkjl0v93Im5H+/JvzyOepr2cNklFmC/7MC4I/A5rxT46nbfaSMSDMTn5xgn5hQB5Ez56A03k+gozSGmmAY9zTlAB4ApBTh1ouBMnWr0VUY+tXoqQFhakqNaeKAFooooAKKKKACiiigAooooAKiuf+PaT/dP8qlqK5/49pP90/yoAV+IfwFaFkhfUCB/eH86z5P9QfoKv6Y2b9sHuP51UFd2E3ZXN3T4WNzNLk4icY+vat8z71eOVBIGGd3cep+tY1tfQxxTxyDyzv5J6GtMkF3II5jHI5oasybJ7ks9la3DE2zjGN2x+59PbFZ9xYT2+DIhG4ZBf+L3PvVpRkxjnBTpmpVvZEiUyMHTBAD8gD/Dim9bhZrY4PXtPNmx1CE+WD/rU6bvf61lpOJMFk4PRl4NdhcrYa7MsbSm3RMjcwyrN61j3fhu4t0WSNN0bgspjO4e/HUU+V2DnWzM0QrMMDbIPTHI/D/ClCyxfcPmKP4WPI+h/wAaheCWE5Ix7ipo7xuBKNw/vfxfnUlli3uEkJUEhx1QjDD8K7Hw14xv9BKxq32izzkwOen+6e38q41o4rlQwO4r90rwy06O4lhOJf3if89FHI+o7/UUxH0Jo/ibS9aiElpdIsn8cMrBXX8D/StjOR7HvXy3qEgkKlWBXbkY6dquaH4l1bw/I0+n3ci4+9ExLI/1U0BY+mMnJAB+vao5YFmQqyg5HcZzXK+DPGcfiSzYXZt4L+NtvlK+PMGPvAHn8Oa6zJ9efQjpQFip5VzaDMJ82MdInPT6HqKmhuo5m2jKSn/lm4wc/wBfwqbdz71DPbR3C4kTOf0oET5wcY49qM9Rg8VS/wBKtcZY3EY7McMPx7/jU8NzDcFlRjuX7yk4I/CgCbd8pJ9wc0vVcEnH1prsqglyAvfJqP7VAPlEqMe+DmgCYknGOtKTxUH2kY+SKQ/RcUeZcOMLEqA93bP8qAJiOhz9fpSBQBnHvUWydjzKid8KmaatqwGXup5BnIJIH4cDpQBKdvUlRx1zxTPtEC/KZlDHoAc0JawoMeXk9yxz/OpQqpyFUEegAoAgW7VyfLilbHGdhA/Wnbpm5ECj/earBPr+tN2jrk+1AFSS3kniZJGQK/BAXNZM2mXGmATacW8ocvbhsK3+BroNoPb60Hdt+Uc+hNAGbYSWOoDzUQmSPIdJCQ0ZPYg/zq/tAXhVU56YrOvdK3zC7s3eC6Xo69CD2I7j2pbLU/OlFtdoIbvGAv8ADJ7qf6daB7mjgj+M4B780e3elZecbQe/FJt7HkD1oENx36kcjmjnJH86fgjtn8KTA5Izk+1AEZH69u9M25xn8KlKZIJALD1pTxg4zz+VAEDJn6d6jcYXdyfoKsHO4Y6dzSbQRnP5UgK20D2FH0IqUr15NNA9xxQOwwLk/wCyRxxSlfUZHf0pwUBjhce4pdhYjapJ+lAWOY1K3fSr8ahbf6lz+8A7H1retp1urdJkOQRyPSrT2ElzC0ckBZWGDxWSlnLoGyNstAw7c4NFxmjngYPGaTAxgetR5mfBWHbnnLOP6ZpwW4JOWiUdsDJpiJOnf9KQA/XFMEMnO+4cjPGxQMUfZ0ONxdvqxNAigsgUY7VIsgAGcAnsKyhcgjmpVnDDrQUagcU8Pgis1Lj3zipRMAfU+goAukI2dyhs8HjtUa20aNugeSE9jG2P06VGs2Tjoe1SCbjBIzSsBZW91KPpLHOo7ONrf99D/CrCaxHu/wBJs5YyDyzDzB+nNUBLTxID24osBtw3tvcriG5WT/YTHH4HmvEvjx8uq6MCpGYJDySf4q9Pkhil+9GCfXv+deO/GUeXqmkp5kjqLd8b2Jx8wpNAea5opKWkAU9aZT1oAnjq7CKox1ehOaALK08UxafQAtFFFABRRRQAUUUoFACUUuKOnSgBMVFcf8e0n+6f5VNzUVwD9ml/3DQASD9w3+5VzSWxdsxzhSCcfWqsg/0d/wDcq9oMcks9zsAOEBIK7hjP6VdNXkTN2RozMskVwD3cECp4bqS1uZcEvF5QJQ9vpVaVAM7oyn+0vzD/ABFIN4yykSKV2kqd3/6qctwR0VrcR3AhdWH3MkdxWRfXjXL28MTfuw5Dkd+v6VTinKyxEMUIQoSO9NtsCO1GMEM2f1qWUCp8kQ9ZiKmtry4tXDwyFW80oM9B+FRr0i/67mhR9z/r4NCE0nuWBJZ3gUXMQQglTInBJ+n51n3ujwJHHKkynf8A3eoPoasQAC4t+M7rkg/rThEPsqueW81hn6Ggnltsc/LZ3MPzJn2ZetSR3geDdODvAyWA6/UVrYIAweMf4VWmtftQaGOMeYwIGPpmmVcxppIbgCSCQHOQdv4daRFcW7kNkk4waw7BdusyqCcANW8n+pb60DJGZhscZVhyD3FdJovxE8Q6NtjW7+1wr/yyufm49m6iuZm2lVBYBj6HmofnH+0PyNAHt2j/ABa0m8ATUYJbKU/xffT8xyPxrtrS/W/hE9m8M0TDh1kDA/lXy4JV6ElT6NxWjpmq3+lXAnsLuW2f1jbGfqOhoFY+mCs7f8tFU+gWoG02CR3lbJlcbTIPlP5ivNdA+K8q7YdbthIvT7RAMN+K9/wr0zTNVsNYtvtFhcxzx452nkexHUUAyBbf7OgWeEXMX948tj3B61egMMyExlSp644IqXA6fpVWWzDv5kZ8uTsy8GgRbGcf1pe1U1uJbfC3KZXtIg/mKtJIkiblZWQ9waAAgqVAJ5PP0oJweSOORTuQMD/GlA4FACcen40dBzSgYxwB+FGccUAH6+tJj3yPSlOMexpMZIGTQNB2IPNGOetL2zjikZ0UZZ1H1NAWF7VSv9Ngv4jvADdmHY/41P8AaYw5XcCcZwoNL53GUikYD0GKBmTBe3GmuLfUsvCThboj/wBC/wAa2VIYDDAgjKkdMfWoZUa5iZHt12n+82ayI4bvQ2DqHubMkloweU/3f8KAsb2MnHf1pNoXHB5qxYy2eoWwmt3EinvnkH0I7GrqxIo4UVNxWMsISeAT7ilFvIxyI2xWqABRRcLGatjKWzgD6mnjT2PVwPoK0BRRcZRXTY+Nzsf0p6afbKc7Mn1Jq2RRSAiWCJekSj8KkAA6YH0pcUuKAEqlqFil5btGw69PY1epMUAcZau8Exsp8hlPyn1HpV48EYHWrOvaZ50f2mEfvY+TjvWda3S3EeTw68OB61SETLx2PPXIoyPx6UpJDHJ+lJ6cdqYjx+DxVdx4EsUb47j5TWlb+K7R8CUSRE9SRkfpWE1qvpUD2g7UFXO6t9XtrgfubmNvbdzV1blse/XFeZNasORU0F5fWv8AqriVR6bsj8jQFz05bn5eenrUiXPr9a8/h8TXsIHmxxyj1+6f0q8vi6HZ81vKG9AQR+dAHcLcDOd3WpRODiuXtdahuseXcwg8fKWyf6VeWZj1lYA9l4oA3vPAGcjFeP8AxjmWXWdL2sGxbPnB/wBqvSE8rIJ+Y+pOc15d8WWB1fTMAAfZ36f71JgcDmkzTN1KDmpAfmnqRUOaep5oAtRnmrsNUIzzV6E9KALK08daYtPoAdRSA5paAFoopwoATGaULTgKeBQBGF5p22pAmacI6AIdtR3K/wCizf7hq6I/aorqPFpN/uGgCvMuLeQ/7FaHhS8mtNQm8lQzyhYwD35qtcpttJP92tLwTEkmsOHUMMp26fNWlJtSuiJpONmbb3VrKxjuYCkivh5FGMetRS6VBOry2sySbeh+635in6npZ33jQNkmYnY317Gql8og1GRUXZsiVtoOOcV0OtGT9+N/zMlSa+B2ILiyuIGxMgb08wYOPZhVR41XBDNC2cgsP/ZhxWzHqF3bpDvdZfPi3DPYc8U5ZtOuwpdGt8jG5ejH+Rpezpy+CX3j55x+JfcYgaSMr5icK+7I7/j0p6OpZB0Pnbse1aTaMxCyWjgluR5Z2/mDwaoyW0i/LJFknnK/IT+B4NZzozhui41Iy2YW6/voB63DUqnNinr57Z/76qFN0ci+W/zq24Kwwc/Q9amRnMIjKH5ZN3Trk5qEi2RYyBgf54qrcxuYpCvZD/KrnTBAzjH9KsWkaSJdCRQ2LdyvscVajfciTsebWIb+1pRjKjd0/Ctlc+S9Z1iM6ldH6/8AoVaqqfImOOgrOSsXF3LaaXNe2huIkLKhwTjIFUmjeE4ki49e3510Wl3FxZWwMMhUSbg47EYzir/m6dfsReQGNm5MkQ5GRwMdKnQluS1OOHlSDG4qfRhkfnQIGQZVio9QciuhuPCxeNprFllQEA7DyCf9msJ7W5tXPDAjuKoakmOjZl5deP7y81raVqN1p1yl1Y3LwyKeHRv5+v0NZMd4pH7xQD0LL1/EVo2lvHcPujcq395Ov4igo9l8MeNV1OJYtSQQz9pY/uN+H8J/SuxBBUHIIPcHrXjWh3QsgkN8ojBOEnHMbexP8J9j+daGufEO+8K30On2trFOrR+YfOY4A9BjkUAerFQRgjIxVV7TD+ZbsYpDyfT6EVxHhv4t6dfyJDrGnmzeR9iSRMZEz7jqP1r1JI48cRrg80mwMRblkby7hBG2OGHKn/CpVvIH/wBXIr84+Xnn8K15beOZNsiBl+lZkumTWzb7N8jOfLai4DfMJ+5DKR7jA/WgtMeFhUepZ6bHdAybJlMUg/hb/GrOOaLgQAXJ6vEp9lJoMTY+aZ/wwKmJwCaCfemJkP2eM8nc31anCGFORGo/CpBwBjGKTOT1IoCweuMUvXjH4Um7Axk0bu35UBYDn8PSlJBBBGfXPSk3H0pOnSgDKuNPns7g3ulP5cv8cf8AA49CP69a1tK1mHUQY2Bhuk/1kDnke49R70gPHH6VRv8ATI7orIjNDcodySocEH60mM6TNFc5aeIvspNvq2I5V4WZVOyT/A+1X21+2yBHFcSZ/uxn+tSBqUZrHbWpz/q9NlP++wFQNqerOBstLWPLY+eQnj1/+tTsBv5FGRXPNcapJjN5FGP+mcWf51GY7tz+91K5b2U7f5UWA6UsAMk4FQSX9pF/rLqFfq4rm2023ZgZWmlJ6b5SaRbC0TOy2iAHTIyaLAbEviPSYm2m9jLeiZYn8qgPiezziKG5lP8AsxY/nVDYqfcVFx/silBx0A4p2AsP4hnbJj0uXHrI4WuZupbvTtSN88YjgmfBRTkJ+Poa3u1Qzxx3ELwyAFHGCDRYBQ8kyB0aMAjI6mlw/wDz0I/4CKxtPmk065bT7hvk6xP6itrPoPpTA8nKe1NMYpIL60uf9VcRsfTdg/lU5Q+lArFVo/amGHjpVsrRt4oCxQa3BqFrQHNaRSk2UDMlrQjpT4ri+tT+5nlX2DcfrWiYqYYR6UALB4l1CHiQRyj3GD+dcf4+1Qane2EnlmMpCykE5711bW4I6VxXjWMRXloAOsbfzpMDnM0oaos0uakCUNUinmoAakU0AW4+tX4TwKzo25q/D0oAtg9KkqJakoAcKWmZpwPFADqctMBpwPFAEwqQVAGp6tQBOoFPAqINUgagB4FR3YxZzf7hp4NR3Z/0Ob/cNADb3/jwkP8AsitDwKM6s5Pcp/Os69b/AECX/dqfw1dmyuHlXliFxg89c/jVw+JEy2Oq1u48iK7KfeaQge3NZep/8hGc5/5YL/Kq2oXklzNOZFwWbIzx+lOu7uO5upJVyoaEKA3HIFOW40STnB03/r1/rSf8w3S+/wA8v86WYg/2bzn/AEbHH1pv/MN0v/fl/nSGLGWhtIJ43dHknZCQewq3DqU3kxtPEk0RkMQB65qpj/iW2f8A19v/ACpU/wCPC3H/AE+v/KrhVnD4WRKnGW6L6QWF8UiXdE/IIYZXNST6DJaWJkWf5yMqoOV9cYNWtMRH02LCgSC5cMfUVc2AWcbkklpCCPoauVVS3iiIwcdmcoR8oLxcdmjOf0p0G0eeUcEeRICP+A0syG2uHjU4Cnge3GP51FlpmZERTIyMobO3HynvVU9WEjgtPGdUuR9f51uRx5sr0/3YwaxtMQjVLgnOMkZP1roIwP7M1L/rkKwqdC4dTTij220P+6x/8dpBHl1PfdH/ACq0qZt4TjhUxn6rTFXEi+m6P+VSWRQSSRqjxsysqAg5778VqW1yl2wt7u1ScdN/RlVWweazNv7pcDJ2Lx6/vK3dOiiFs0kZ3Fi+Tjp83SmtNiXFPcz9T8KWbSK9lL8zjlH4O7PQHvxXPT6Xe2Egba6kcgjg12+oQGa1cJnepLLj6isa6Z22EuzBS6qCegBo3Ekyz4ev5b2xkinUGWN9hJH3gRxkdPX8q5bxHc293fwTWcoeNY2QDOQmD09vpWozSMGjVzGJMZKnBP415/FG0GvTRBiVVnU89aTZZ0dm7BYMj/loeR9K7jRvF/iLRlUW1+8sI/5ZXH7xfwzyPzrhrXhIj/tMf0retSjwqYZ3Q46Opx+RpbgeraV8W7STbHq9nJat0M0Xzp+XUV3um6tYatbiewvIbhD3jbJH1Havm2ZZQpLwhh/ejP8AQ1StNRuLC8E9jcyQTL/FGxU/lRYD6muLaC5TbKit79xWY9jc2mTbN50X/PNjyPpXmeifE/UHWK31SUAA4NxHEC34j/Cu/tZWv7ZZ4tVlnifkNGQAfb2oQFmO9hMohdvLmI3CN+G/D1qYYHB49KpHTrZ5BI4Z5AOGc5Ipi272pJT99HnO1z8w+hqgNBpFAwXA/GmefH2YsfYGoYbmGU4QAOP4CMEVNuGaAEEnUCOQ45yeM0GSQ5Kxjd23Njmgtzk0bv8A61ACN5p6FF9epoIkI/1n5Cgnmj680AGB0LuffOKTy0z93P1OaXNJu9qAIri2guYTFLGpVuxGKzxNcaOwSYtPZfwuOWjHv6itQnuf1pGAPHUdxjilYAjlSVFljdXVhkMDwaUk1kSWk2nSNcWJzGeXtycA+49DVu21C3u4t8b4I4ZH4ZT7imBb6DA6elN9e1M81f7xP4UjSHsrflQA4kEnrTGzx7U3c5/g49zSEv6KKAsI3TBzTTgHjg0Msh43gfhTTGe7sfyFAC5596Q474ppiHTk/U0eUox8ooAqajbJeQYDqssZ3RtnofSo7C/86HZLuWZTtZccitDYM8Cs3UbeS3lF/APmX/WqP4l9aTYHz6JEHU7T/tDFXLS6lTcFmcAdg5qGS0ulBKhD7E1TsrhZpp42g2PGQDuHX6UMDRk8QajazxIs+5Xk2kOoPGK1rbxSCpFzbnPrGRj8jXJ3SAXEGBj972Psan5VSQ4PQ4PWlqB20WuadIBmUpn++p/pVuO6tZv9VcRP9GFefCVh1X8jTWlHUgj6rTA9K2cZxxTdgNeew388RzDcyJ/uua0IfEWpRDmYSD/pogP+FMDsNntXCePhi9sv+uTfzrZh8Vyf8t7VG9TGxH881zvjDUYtRurSSJHQLGwIb60mBzYpaKKkAqRajp6jFAFmI81oQ9KzoutX4aALq9Kfmo16CnigBwOaWm0UAOFLmm5paAJAacGqKgGgCdXNSB6rBqcGoAtCTio7qQ/ZJuf4DTA3FMuG/wBFm/3DQBLdtmxl/wByrWiacuol4maJcRhx5g6+wqjOc2cv/XM06xfcIgGYBggODjjFXT+JGdRNx0djSl026t+Y5JFTO0c+YpP0PNVxJMjESQK5HUwna3/fJqX7ZcRCRhIdsb4CnmpjqHmeZHPAjsVBLAcLTluRF1EtdfwII5E3AxyFGH8Mi7D/AIVYE8yxwI65jhZiuB69eacr2M2THK0S7cqCMgn6GpEsWynllfnXcTE2MdOoPHepLVVddBI51e1hiCsTHO0hI6YNWISrWVvyM/a3OPwrTtLEQW4bCylxy+MZ/HpWXc2QtLjeu5EbkErkA+mRTLTTNG2uDb2tpJ/D9rcMPbFXb/UVg02AwASMZmHsORWEJZdiICHjVy4A55IwalSYPYx2+wjy5SxPqGOaaBlKWaSaZXkfczDBP5VBMf3MmP7p/lUjgqcen/1qhkOYZMf3Tx+FbU9zORx2nyN/adypPygkgfjW/E//ABLdRHrGtc5Ztt1C6b3P862LeTdp9/8A7grKp0Kh1O20y1F7a5WVVkUAAFsE8VJcWE0B/ewk+445+o4NULFv+JZEw67m/RBXS2SXCskYlYiRV2B+RlhyaqLptWkrEvnvdM5t4f7jFTgYVuOhz/nFS2N09rdGKVSqS7s+xJyDWw8lpIzR3VuYmwMvH0x0zjp1qvJpKXCf6LOrqRnZnkZ9j/Sn7K+sXcFUt8SsQ32pbmaG2boSGcH/AGhwKp3C8D/fk/8AQqimsprZ9ksLIw7r/gefyJpVy6AGRXYEnHQ88/Wo5WnqXdNaERi3g84wP6Zrztc/8JBP/vNXpSqwBDDBwev0rzgf8jBP/vGqqRSSJTdzoLXBECngFjmuwt9IlhJW2lF1bdsHJT6g84rjYOkP1NdSryRPujcg+xrFFNPoyPV7iPTY8SQs8rfdROPzPb8a583EVw4L/KT/AHu341151JboKmoQJMQMCTGH/Pv17+lUbrwzYXiebpl18x5EUnyv3/A9vSqQuZrdGakc0KqwUsp5Az1+h6Gt7R/FUvh+KS8t3Zo0H72Aj73sQeh965t7LU9JkZdjBf4lxkH6g1HqF5azWLecRDKylVOcZPpn+hqWWer6Z8W9KvJgt5Zz2aMP9buEij6gc13scqzRRyxOGjkUMjDowPSvmK0VxbK5K4KZyK2tO8Va1o0rLY6hKsQb/VOd6f8AfJ/pQmB9AywRzKC45HRh1FQ7ri2+8TNGP++gP6155o3xSicrHrFk6k9ZrdiR/wB8Hp+Brv8ATdR03VoPOsJ4p077eo+o6incCzFdwSqGWRTkZweD+R5p/mL0BJ+gqKW0jlIfBWRejrwRTRJPAMTL5qf31HI+o/wouBPv44Vj+FG5v7n4k0RyJKgZGDKe4p+aLgMzJjov86aRJzlx+C1KRmjAx70wItpJyWb6dKPKHufxqU89qTGOc4x2oAj8tf7qn8Kp3eniSRbi2Yw3K8Bx0I9D6itDendh+dIWQ9D+lAFC1v8AzZfs1ynlXI/h7P7qf6Vcx681FdWsV5HtkjckchguCD7Gq0N1PZSLDfjMTNtS56Y/3v8AGkBeK5pu315rQSwdiCJEwR1HNSJphA+aQZ/2RRcDKKZ4xTSmBxW2NNi4yzH8cU4afADnaT9TSuBgbCMUm2uiWyt1GPKX8ealWCNBhY0A+lIDmvKY9FP4CnLayvx5TH/gNdMAB0AFLQB8t3kJtLgpwdpyuecjFcyGzqt4xAGSDwPrW9KxbLEksTkk/Sue3f8AEyu/fb/WrkJCXJzPbn/pr/Q1esdOF7ckuARgKGP8PvVG5AL2p/6aj+RrqPC//HzdD/ZT+ZpIZVbw7OqbovLcbtvysDz9OtUptNuoyS1uVwcdDXYasUjs5DsXzGdVU45GT1rKW4ngY+VM42yADnIH503Yi0kcy8LA/Mh/LNR7EB4+X8xXVm7cyZlhhm/eYO9PX6VEY7OYjfabcsR8jd/xpXQ7tbo5xUbqHJ/I1Q1hWDwbiDlT0rsDpelyhWSeSNtufnTIJHbisHxhFDDc2SwNEw8okmPp1ptaApX0ObxRiloqChMU8U2nCgCeLrV+GqEXWr8NAFxegp9MXoKfQAClpKWgAozRRQAo60tNpRQA6lFNpe9AD6bcf8esv+4aUUk//HtL/uGgB8v/AB5zf9cz/KoNGk8xl/2SgqxL/wAeUv8A1yP8qzvDzZd/Zk/rV0/iRM9jZnP7u5/66UrczTc/8shTZeIbjP8Afodv30v/AFyFVPcEKozJbBhkeUetEEjqsBR2VnJywPNCN89sP+mZqOEjZaj/AG2qLIZr6fr95ZmMgiRN5QRsOMVsDVLXUSC8RjjUkEqeprkUyFh/67GrenytGB6GY5FMnkXTQ6IWME23ypkLkEkHgj8ahkt57dVYvgN03DOfxqujBwuOQZCM0/e0kKhmJG/gHoOaaFZrqMuFJTc8JyO6c1QkCGGTY4JCHg9elakMUso2xqzdj6dqr3djIpa2m8sM8ZIJOAOD3raG5MtEecQnF1dn3P8A6FWpYPv0/UM/3RWUiFGu2wdpJUc/7VaGk86fqX+4P61lU6Fw6nc6YVGl25YZG9iR6/IK6+CSOW8tjGR/yy4z0+WvP7dmFnCN4UbOATxyPyrTtdVnt7uKeVThSgJXuFGKgrY2rudHtrqJRkhEJb/tp0qkxKQwMh2sTJkj/fA/rUEE8ZtZxu5dECg9z5gP8qml4trcn1l/9GCn1uPpYuPe3EUlxF8s0cJbKyc5AbH9az7yWGURulsEUg5z6g9vSrcn/HzqP/bT/wBCFB06S5t7Yr8qHzOT/vVoqsno2ZunFO6KCH5HCyHkfdfn9a8xBP8Ab8+Rg7mzXp9qNlwmeoYdfrXmd3If+EivSevnSc/jTqaxQR3N+1UMID/tGutaJW5Q/h+NcxpCCWKzP96Vl/Su5m0i4Rd6KJk/vJ/9asoRbWhTkluYxTkZ4I6fmKaqkAEEjgfyFXmhYcHIwf4v8fwqOK3kkuRDtIYjOT0wMCjbcd+w24aQmMs7HaNoye1cr40smGiQXTRlVebaGxgHg13Go2i20sIDbgUJz75rnvH4H/CGafjtckfoaOXS4X1sZVgmdJth/wBMRz+FRzvF9qdJAUYMQCauaVHv0yED/n3/AMK6SW30q+TyruAxOPlEic9OORU2Buxy0MMmcxkOv5/rWvp1xNZXUckMr28wIw6nH61PD4LuZJzLYXPmQIcsyH5vy61C97LpOrlLqATRxvkblwSvv2NFgTT2PatM1Nl01JdTnhj4GZnYID9c1sWZhv08y0uYJ06Fo5Aw/SvEvHV7aT+EoorG7WS38+N/s7HcYz7Hrj2NZfgTVbvSbxZ7KQo+X+UjKtwOo70NDPoV9GZm3xyCKT1XofqO9UnlntZNl6giHQSqMqfx7Vi6f8Rk2hdTtGQjrJCcj8jzXV2WuaRq1sXtbyCZMfMueR9QeaQFQLuAYPkHoQKf5Xq7H8aZNawREyWFyIz1MRBZD/hUUd6QP9IgeI5wD1B/wp3AseUvfJ+ppPLQH7o/Kl3nA2q2PWly390fiaLgIFHYD8qUL3JpPn7bR+dJh8ffAP0ouA/FNeJJEZHUMpGCCOtGDjlz+WKNo7lj+NJgU4XutFbMIaexzzF1aP8A3fb2roLa9t7uBZoZVaM984/P3rL2A9Rke5qjPYlJPtFntSX+JCPlf6j+tAHRtdwr1mj/AO+hTDqFsv8Ay1B+gJrEtbmOYshTypl+9GRz/wDXFWM0AaP9pQdhIfohqM6quOIJfxwKo5pp+vH1oAuHV2zxb/m4qFtXuMHbFEv1JNVGIz1FROQMYoA+eJGbH8P4E1gKxOo3WVx93v8AWuhZirKwJBBByO3FYEjmTU7tiS2SDk9+TVSQkJOQfsh/6bf0Na1iX+1SFCQQq9Gx3Nc/NOCYV/uyk/oa17CS2eZTcBmQkBgoBOPbPenFXBuxvTzSSKRI7kBwyhhUbMCXIIOZAevamm201WKpd3Fuyvgq6EYHvg9fwp4sWbIh1K2mO7GJGGfryBxWnsZPaz+ZHtY9br5ABk56fvamtoDPNGi9fMbJ9BUf2DUAQRbpKCcAxNnJH0Jp9tcXFnJu8qRM9nXg+vpUunJdClOPctTaa9uFdMvGFbPqK4vxP/rrTH/PH+tdrc6sZYFjiUoSCHJHQe2K4rxOR9otQABiMjj61DVijCoooqQCnCm09aAJoutX4aox9avQ0AXF6Cn0xegp9ABS0CigAooooAKUdKSlHSgBaWkpaAFFE/8Ax7S/7hpR0pJ/+PWX/cNAEk3/AB4Tf9cj/KsLSbu3to5zcl1VioBUZx1rdmB/s+b/AK5H+Vc3YOUglIYDLL1BPr6VUXZ3JlrobqXVvcBvJvI2DdjxVjdMdzbd25cEjmsPyklIL28Uh9VIz/Q09Ejif5XuLY/7xI/WraUmCbRspOokiLAjaCppInX9wAeVc5z2rOWe/A+S4huF9HHNIL8qcT2Ljn70LZH5UnFodzWTG2L3mPNWbUYQHsZzWOl/ZuwC3BjYc4kXBrVtS3kqUZJAHLcHNIZetpNsiDsZjWjJA9uio+Dlsgg8EE1kB/LZCykAPuq/bXnm2Mdu/LRyZRvY9qpCZq6RcbJTE3Acbhz3GKqeIZIpCNjBiI2DYPSq3QAjrj/Cobz5rdj/ALJ/lWkPiM57HnZYhrz6k4/4FWjovOnamT/zzH9azW+/efX/ANmq/o7YsdRHrGP61FXoOHU7nTGtVsI1nR8lBtZT04HarR0y1mbNrdqCTwCdh6flWRaPmygPohH/AI7UwYkgn1QfpWYOGt0y5Jp95BhjFvXAOcdQenI/wojywx8ysOP7w/T/AAqKC+ubcK0crjABxnjOcVoQ6zsdHnt4pCh+8Bg4B/rRcLzXS4rmeIymVQzTKckH1IOePpWrZX0X9losjFfJZuvfJyMU24m0vU4YmDtDKODvGQvPIyOapTQNbOmLlHVxkfxCqjuHMm7FJ5FNzM8XTJZc15ZeMTrF0xPJdifxr1JgymXMWcKfmQ/0ryq7IOp3B9XNaz+FCjuzsPD7A2Vhkc+e/wD6DXe2zOn2cRyMhctkg+hNee6A3+h2Hp57/wDoNdxaXA82zUkN8zg46jk1hHTY1avua0Nw92kfnWyTls8j5W49/wAabb21lJMktvO0Rz9yXgH156VPpE8TW1pghNrkkk5z93ms/dHJJBtGUZ34P0Fae0b0lqZOmr6OwurcSRxGJTtBIdWGSD6eorg/HjD+zLdNzYEn3WyMV1dyMJAwJ+ZT+hrk/HR3aZbbsk+YOfbFU7crsC0ZJpLhNNiJPPkAfyroWgd4zMo3JnJ46ZNchpk5Nsqdlh/wr06GFYdJiMkbLGYgTxweKxSbNLox9MvGsLoOJCiHhsU7Vb06ltklijIHGSvLD3qKVAQSBn6VGdrwLgjr2prUGlucV4rjWKewEBKAscgH3FaOl3AsoDK6FwrNlR74qHxZAv22w+hbr33CtPRNscokeJZVG7KN0PSiUWtwTvsX4tTjuIsW8/J/5ZuQT+XWmWF5PY3onjZ4ZFOd65GP8PxqW40TSdRbdbv9kmP8LnKk/X/Gqf8AZ+qaRIDJKJIh90csCPbH+NTYSlfQ9PsfiNptvHHb6xcNHclN4aOMsGX1OOldjDPFdW8c0bLJDKodW9QeQa+adVu7aXXAkAMbLBzGRjGTnj2r6J8PIB4c03IGfs0f/oNIotbPL5hcKP7jHIP+FKl5GWKPlHHGD0J9jVgL6ClMYddrLuB7YoAbv9m/KjP+y36U37NcRf6kFh/ccH9D2pI7iN5DHkrKv3o2GCP8aAH5P90/nR83+zn86cP90/lS4P8Ac/WgBmGPdR+FG1jjLfkKfhv7oH40uH/2aAKlxYpPhy7LIv3XU4IqGOZo5BBecOeEkz8r/wCBrRww7gf8BpksCzIUkAZSMEECgBnlLnkUhjH90flUUbNprBZw89p0D9Xi+vqPetyNLaVFeMI6MMgjkGgDIKe1MKelbwiiHSNR+FBaJepQfXAoA+UJLpLj5goR2PzKOmcdqwQf9OuPov8AM1acS5CxuWfOB8nOce1U1Egu7jzBhhtBH51chIy3c/aGHox/rWppDlyhP/PRP51isf8AS3+rfyNa2hk+WSOqkN0z0NIZ096T/at173S/zFPvAG1m5UgbTegEY4xkVRe6Mtw8rlN7yCQ9Rzn3qWS782+e4KffnEu1SDjnpSsxlkRj+12iUsiG78v5SR8ueg9KltLq7+3pAl3MqmV0HOcAZ7GqqXcf9pC4bcqfafNOR0XNOs54hqkUjSKE852JJxwQcGqU5LqS4p7otWuqXVxiNhAw8lz88Q6KM/n71zXii6F5cWsnkxxfueiZwefetnTmAlHIA+zzd/auc1wnzLX/AK4iqlUlJWbJUIp3SMuikzQKyLFpwptOFAE8XWr8NUIutX4aALi9BT6YvQU8UALRRRQAUUUUAFOHFIOtLQAUoGaSnCgBw6U2f/j1l/3DTh0ps/8Ax7S/7hoAmn/5B8//AFyP8q5ewdVSTcpIO3ocV08//INn/wCuR/lXNaU0gWUx7SflyCM8c1SEy4qxORh3T/eGRUnlyCNtsqsuDnDU7ep5ktVz6qMU1/s2xipkVsdDzTYDvnABktwcd9n9RUe+BmP+sjOezZ/nU6K4A8q4U56AnFDfaB/rIRIvrtBoENRFnyokjbHaRetXoLMCNMRDPrE1UFaEO3mQsnptOMVqIkJjjKzMpx/EM07gPBli+UTuv+zIKkivLmMg+XHJ3+Q4pNswdNkqv1xz7ehp370L+8twcDqF/qKExmolyjgeZE6H1xxT5kV9NnkQkqiEn2q9NpsUVlHLG7E4BYE9iKr3N1FHoN/bMpJeJsY7cVrG8XczdmeXt1vD7/8As1WdLOLe7HqoqhbD/QpD3KDJ/wCBCr2mf6i6/wB0fyqZvRDhuzrNPbNjH9GH/jtWgeUH+0n8qzbKdYrRA0UjL6ofarP2q3JG2cqcg7XGKixRZUkqD/sj/wBCpznO71+b/wBCFMjJKjbtcYx8pz3zTiRkhgQfm6+5zSGW4GPmMvYlv5ireTtyfVu3vVS12vcAFgA27n8RWzfWiWyx7STktnPrTQipNaSxqs7RkRsMcnGa8lvyp1S5IGMyNx6CvZbu/E2nLCU5AGWJ7gV4zf8A/ISuP981rL4UQtzqfDyl7PTwO9w4/wDHa6ybS7u3+ZoSQOdyf5xXK+G/+PHT/wDr5k/9BrrYL64gY+XM6jPTPFYlSv0IoLma3liw5wrbgsgx6f4VoQXATyA6nbGScjnOQP8ACnJqazMv2i2ikyfvAbTn8PrWjZ2ml3kjEPJCQCcN0/MfhSuLnfVFAWrXttEIiv7pTuz25rjPHKL/AGFbv/GJgv4YNd4XOmb1jlhl3pwe3X1FcB47c/2dbLgqDJnAOR3rZfCxXTehQ0UB0fPT7OT+or023vLi2t1VZNyCMMUcblPJHQ15loZwkn/Xsf5rXoayxtFtDfMIwuD67s1km07otpPcvs1lOx86AxPkjfEeOPaopNJSO3knjuIpIxyARg/j6VPaRwyPKZD0MhHp0qpd3Dw28kaHG9gCcckba0Ur6Mjltsch42jiQaMyoFdll3c5Jw64qz4eUPaF2xwzjn/gNZPi1j9usRngRP8A+hLWr4RMcgEMshjQmQlgM4+7SqK7Q4u1zUeDGSvIqeeyI0i3uAxZmYj6e36Vtf2QBYSSRMszdcxn9MVh+ZMYlt5DhUYkIeKnkdyuZWujkvEjxXHj6eWJlZfsqDK9MhRkV9OeHUiXw1peQmRaR8nH90V8r37FfE0xIx8uP0Fe96VrmmWuiWCzanZo626BkklGQcDioasxp3O/82Bf44x+IpPtduB/rV/CuGPjTw8hIbVbUEehz/KoZPiD4cjH/ISD+yRsf6Uhnem+gH8ZP0U1Wu2srtAJY2cjowXDL9D2rgn+Jnh5Ok1w/wDuxH+tVZPippC/ctrx/wDgIH9aAO4BnhbCFp4v9vAcf41LHcpLwvBHVTwR+FcHZfE/Tbu+SGS0ngjIJMzEEL+Arqre+stVj32tzFMB0aNuR/WgDU8w+350bz2wKpZni6/vE9QPmH+NSRyLImVfI7+1AFjzGx1/Sk3n+8aix70cetAEu/1JNUmjktTvtCQp5aHdwfcehqxtHpmk2j0/SgBkNzDcLvUnI6q55U+9PLp/dX8qgmtN7ebHmOYdGA6+x9RUlkTcS+RLthuB/Cx4b3U96APl2QkEkev9KqLk3M5JOSFJJPXrVuUcd+v9Kqx/8fE3+6n9auYkYbf8fT+5b+RrY0GbykBCK2HBw3Q/Wsdv+Pl/q39a09HHyN/vD+dINzqjdw/NvtIziQZ2kjPt9KGNgWbfbOCHwdrA/gM1UPWT/rqtOf77/wDXYUyPZroT+RYE8SyxfNg5XgenQ9aX7JAxXbfJznh+2PqKrgneP+u1Cscx/wDXRqQ+RrZko02b70c0Ljbu4Ycfy5rA8QW8ttcQpMu0lMjntmthAMR5H8DGsXXOZLb/AK55/Wl0GlK+rMqnZptKKRQtOFNpwoAni61fhqhFV+GgC4vQU8Uxegp4oAWiiigAooooAUdaWkHWloAKcKbS5oAfTZ/+PaX/AHDTh0ps/wDx6y/7hoAluD/xLZ/+uJ/lU3wttI73VruGWJZFaNPlIPqfQVDcD/iW3H/XE/yqt4Bn1G2u7qbTN3noiklVU8fjVwTbsiZyUVdnuVx4N8O3aAPpkAOOXiO0/oawrv4Y6NMT5MtxD9TuH6islPHfiO2Xdc20UyjjL25X9VNWofiYAQLrS1B7mKbH6EVck1uTGSezKFz8Jpjk2eoxN7SIR/Imsa5+HHiWzbMUKTD/AKZSjP5HFd9bfETRZWHmpdwj1aIOP0zWvb+LNBusCPVbdT/dcmM/rU2KPFLnRNesGY3OnXKjvuiJH54pxYDasluuQO2VNe/wXdvcKDDPFKD/AM85A38qdcafZXYAubOCUf7cQP8AMGiwHz/iE4GHUc85zipEUBAY7kDjvkGvZrnwR4duic6ekbesLlf6/wBKyLn4Y6a8ZNte3EJ7BwHH9DVLcTOJEzuF81icKMMWzVbUebK5wc/um6fQ11Unw41JG/cX1vMAOA4KH+tc1fRy6UNRtplUzRRPG4DZHK9jWstdUZKSvy9TzKAYsH/3R/MVb0w4t7o/7I/kaqQ5Fg/+6P5irOnf8e13/u1lPoaQ3Z1Fhn7EuIS4HUgVMzQkgOrKPcZqvpoU2q/vjGfp7Ve/f7htmik46E/41BbI1tLdjmNwv6VIILtVBgnZlHG1gGp+xv8AlpYhveMf4UyM2wUZknhbJ9COvvRcRNBJcJKBNbIeDypKmtBb+JiFm8xWPA3c/qKphpQ0fkXsTdfvgr/jU7i4SLf9lhlfsUAOfyOaunFt6ClKxdKrNC/lSBsAnj6V5Nf5/tCf03mvWDcvDZtsjUmddjBs8V5DcArO3U/M3P41UnpYSWp1nh+TbZWI9J3P/jtdOW+dvr/WuO0VyLWzAGT5rcfhXR/aHhcia1mjYdSvI/LrWSKNW2dVuYGY4UOpP5irk0yCV2QlYz09ccViwXcDSR4mVWyPlcFT+tWHZi5OCQO459KYGh/rYhty27gVyvjyJ4NOt45F2sJRkHr0NdNBMRagADcr5Bx+lc78QpJJrC2llwWZx0GOxrRfCS9zI0U/LJ/17n+Yr1KysrZyH+0ozFfuScYPpXlWjnaj+9uR/Ku/ecvHuUbPlA47+9YlNdmW7m2uLMs3lSKhzgr8wwaiKy3kiQqU3uQQG+Xtiq0GoXNucxzMvrzV6bVpblLYhUSWEnLqoBbPrVw3J97qcX4zgMN1p7nqVkXH0Zf8au+D9nmEyfcCS5/Jao+NVxqFiTwTHJnHruWpfDSSy4jhVmc7+F6n7tVU6BDqdms2Jn2OQQx5Bx/Fik/0m+i3vIreUm75hkmsszT2zEyoQRyQ6496v/ajeqskaFAVAIU8EAYpRk9rjaW6OA8QJHD4kcRHIaJGPsSqkipL6CQahNhRjeeaq64oXxJOB/dH8hWrd83kv+9/hUSWo0UBFL2K08Ryd3qailYdyLyn/vmlEXH3j+dS0UWBDrAxpeHcHYBTwoya7Pw9cQJLBNBMshSYZCsVfHcY78VyXh268jxISoBZEY4I46VtTwQSXIl+zrDMH+YxkgH6DtRYZ6LoPxRttQ1O6t7qwWK3hZlSaM5ZsHAyvaurW/0rViZbUkzKOWjIDD6ivnTw/NKI72QRvM6ytnZ97buPNdJY+InsLG7vrSXbdRJ8gkTkds4PB+lSB7MrzIcSRgrnhk/qKn6jIx+dcN4Z+I7TWVqurWSzTSLlpoQFPX+70/WvSbO5tL2BJbfYVYZAxyPwoAoYPtRsb2/KtoImOFH5Uu0elAGL5Tnpn8FpJbIzqFZG4OVIGCD7GtuigD4zZJAnzTOfqarWxY3VyCc42gHHsTWntBAyoNZ1uP8ATbv6r/KqkJGOR/pLfVv61oaXJ5ccjeWWGRznGKoN/wAfTD/ab+tXrMbtKmUmVsMDtA4/D3qhI1Fv1bOVk6hjgg81J9tQ9S4y245TvWEFVeouF+q5pd4BGLhh9Up20C5vC9hyP3ij5t3IIp63MWVxJGcMW++O9c+Jn3HFzH+ORUgklPR4m+jCpsHMbyMvyjqQrDgg1j63/rLcYwRHg1EGkDf6lW/3cVBdsxZAUK/WhrQdytSikpRUDFpwptOFAE8XWr8NUIqvw0AXF6CnimL0FPFAC0UUUAFFFFAC5paQdaWgApwptLQA8dKbP/x7S/7hpR0pJ/8Aj2l/3DQA+5/5Blx/1wP8qy/ClzPbNOYJWiZtilh6ZrUuf+QZcf8AXA/yrG8Nfel/3krSl8RFRXWp1DavfpE0fn7okbhSO+aQ6rMxkWWGOTcAWPpVKb7k3+/SN9+T/cqqm5CpwfQ05tRs7iQM2miPcmAI+Oeuf5U1n0eXywpuIhtw5JyC3t+tZqHEkXulJGxxD9TS5n1B010NizsrOWWMR6isTEZywxg+nFbtsdai8o2esMd+SFE54x7HNcbCQZIgQDmQ5q8p5BGQS/UGhNLdBySW0jsYvFHii325kWcHOA6Bs4+mKuQ/EPUIlX7VpsJB6FSUz/OuKglm8yNElkQlsAg9KWaWaS3iMsm9VYqntihPUdprc9FtviJYls3Fncx5HVSHrg/EVyl9qGrXcCuYp1Zl3Lg9KzlJG3BP+cVZjmCRMZQzR7SCoPXit4q6sZyglPn62PPIxiwlB4O0cf8AAhUun/8AHrdfT+lLc7fKuMZ3bjn6buKTTv8Aj2uvpWM1sawe5698OvDGma94dnkvUk8xJgquj4wNoNbl38MLIndbX0qZHR1B/lXGeDL/AFez0uX+zbtIkVt7xsRycDnBrq4/FviSMhZLOG4wcEqmD0z2NKzsDnFOzZWk+GerxRGW0vIJQGxjcVNZUvhfxLZqFeyeVAT0AcV19v8AEV44DFeaRIpJBLRscfqKuW/j/RpOJPtEBP8AeTI/SpsNNM8xngmgcfatLKYPPyFKbIbVrU4WVAAcgMG/nXscXiPQrwAC/tzntL8v8xUg0fQNSYbrWynBPOzGf0rWnPlZNRXjc8jjYG2gUZwCMZ64ryy8GJ5P99v517h4w0600nXrOC0i8uORMlck85/+tXiN6v76Y5+6zH9aU1YmlNTSkjX0ZsW1r2xK3PpxXcRXMrORFqkUqgcJcJj8O4rhtGBMNpt+8ZmA+tejXGh6/bnN1pCTqB18oH9RWZsyCNJHuYWm0yCdS/PkODn8Af6VBdwaabx2EV1ZszcDBwP5U1o44rhPO064tm3f8s3IH5Gp2ulE22PUbhBuHyTR7h+lOOrJbsiNQbd0SPUVk3nAR15NY3j6V3060RguQ/VeOgrYvXJvYG32je4GH/Disfx5zYWn++f5VtUjyuyIg7q5h6Y2Iyf+mP8AhXexqwtFcgFSuBg815/pp/c/9sf8K70xedYrvslmVU4MEgz09KwNiPOMA9afC+LsL/eFZ58iLGJru2P92RSRUivcR30BWW3lRiMAggmrgnuZyktjP8djGpWI/wCmb/8AoS1H4emaOYbSQw34I+gp/jqTfqdkNmCsTA4+q1T0Nwt4uWAGG5Jx2FOp0CKO0/te4WJhKVlUdpF3fzp9jcwXDjy7dYmGc7Sef8Ky5TmJiBnNS6M3+mY7FTUxWoOCWpyGv/8AIyT/AO6P5CtK6P8Apcn1/wAKzfEI/wCKmuB6KP5CtG55unPv/QUmUiOiiikAUtFFA0QeHt0njGeMEZ8s459hXZXETx7Q6MpDDqK4nQCP+EyvM/8APFv5Cu5Z2ktArMSFPHPFGganLeD5mF/qaBipSQ4IOCPmatLxJubS7p5MFygyQoGfmHpWV4KCNrGriQsF3jlRnHLVteLYhFpFwA4ceWMEAjuKm2lw62H2UNyNPtbmF4HjCDMT8MOTyPWrNjrVynie9ureeSB0iVQQ+MdOM1Ho+G0ODd/zzOP1rP0ry5PE2oRTRrJGY1yrdOgpAj13TPiCLWGzi1QPK91JsSRFHA7k+o+ldxY6pZalF5lncJKvfaeR+FfOUxEWsabAhIj819qk8A8V0UGq3dkLW2jeS3ma8iVmjfgrnkZ9KBnu2aSkzyfrRmgD491ZTBd7LfIQAHg1nWZJuLknOfl6/Q1edY2cb4xtzzgc4/xqCNY0vLgRAhcLjIwSOetXMmJhv/x8t/vN/WtjQ7Nr23e3eRljkJxtPQjnNY7/APHy3+839a2tAd12gTLH82ASRgZHJNMDV/4RCVRmO9f8TUbeFtQH3bvPsea2Ve8CB11C3b5tuNy5+vTpT0uNQdgFe2cltoJK/wCNaWWxm5x7nON4Z1RTwYmHuopj6BqYHNrC34V1KT6oZNgt4nJJHDen40ovb1SAbEnPoT/9epskHOn1OOk0e9Rju0888/KSM1n31vJbsiyQvESOAxzmvRP7TuPlL6fOAFzxnp69K5Pxfc/aru1YwvEVjPD9+aUlZFp3ZztKKSlFZFi04U2nCgCeLrV+GqEXWr8NAFxegp4pi9BTxQAtFFFABRRRQA7iikApaAClpKWgBRRP/wAe0v8AuGlFJP8A8e0v+4aAH3H/ACDbj/rgf5VkeHBhpfqn8617j/kG3H/XBv5VjaHKsMcrNKsfC4LZrSl8RMtjclTKy5/vUjJ+8fn+CoDcrISBPC27r+8p4kYkncjZGDgirm9RRHKpDxH/AGDUadIMepqTfJ8pMRO1ccf/AK6iSQIUyrfISehGakqxPbDMkZ9HNXBwV/66VWtXjLjnoSTVnK7gAf4s0rAS2p/0mH/rrTmx9ji/66t/Oo7chJ4WY4USZJ9BTmYG1jXPIkYkfjQtxMjHQfT/AAp0n/Hq/wBP6U0dv8+lLJ/x6t9P6V0U9zKexxd1925+v/s1Jp//AB7XX0pbscXH1/8AZqSw/wCPa6+lZVehdPqdVpJxZL+P8q0obqaJgY5pEOQPlY9xzWbpQzZD8f8A0GruNrD6pUWHZPcvxaxexooFwxB2khhkcHAqePWnUYlt7aZe+9OTg1kjIUeyj/0KkPQ/8C/nQm0yXTg+hstfWMhG/TlUjgmJyM8/5FQzyxRyIbQSx+u5uc+2KpKfn/E/zFWLgkbO/wAz/wA6qO4uRLYnimN5qFuLhnkK/dZ3J215jqq+VfXMYIKh2H616RZH/iZRD0/wrzbVudQuOf4m/nWlTZBBWZqaIdsVkcE4nJx6173F47tVwLqwu4COpwD/AIV4FpBIt7TB5EhINehRazfxscXUhzwQ2G/nWCLlzdD0dPFOgXu0POoJOMTRH/69PksPDGpuTt0+RjzlHAP9K88TWZZWQTW9rLg/xRAH8x9akmvdPlc79MRW/vRSlf0/Gq0J5pdUdfqPgLRpLZruETpJECylX3Ace9eS+ORnT7Nc9ZMfpXQ3l6bcp9ke5jjYfMrSn+nasPx8FXR7CVBhvM+vatHrG5FNSU3fZnN2K7UI9Iv8K737DP8AYUd9MV1MYIeNmUkY9q4GzO6Mn/pnXsljf3kWkWwOnyOghQBkOeNoxxisUbSaW5xG94UIzfw+xxItPzv1Wz+ZG56lNpPHYetdQt/agutzavHn+9HmrumweG726ZpvIWRV+TLFDn2rppSsmrbnPWaVpdjzfxuP+JrbH/pm381qjouDeoCFIIYfN06Vo+ME8zVoAx6RsePqtV/CtlLqGtQW0JUO+/G7p0rCXQ3j3NG7tYxbuyRujf8ATMkfqKtaAJU1HYbhnxHu2sAcfj1zW7qXgnWoYiq2kcxPTynHP4VR03TL6z1WT7RazRhYdrFkwFPpW1OMXTfcynKSmuxxGvkt4hnc4yw7fQVo3P8Ax8P9f6Cs3XTnXJPx/kK0Zzm4f6/4VhLc2WxHSg8UlFIB1LTQaUUDRT0Dy28aXglLBPJOSvXoK7dUjjhby5vMUnptIIrhdFwPGF6Sf+WJ/pXaW4xC+AeopWGcx4Qby9U1hgM4ccf8Cat/xY4k0Scj+5/UVgeDpng1bWXjYq3mDkcd2rf8WStNpFw7YyU5wAO49KTQtTS0JmPhWFCAV8skZGcVjaGgk8YXyl9oMS84zjgVp6J5f/CNQkSssnlnK7eCPrWXoe7/AITC/wBiM58ocDr0FFwsO1D5de0xcgnz3GR34Fa7sPt2n+13EP1rG1An/hINKbkfv2PPUcCtu7YvqVi5OS15CSfxoGfQJIyfrR2pmeT9admkB8dyHg/X+lRRf8fU3+6v8zT3ePH+sWo4WDXMuCD8q/1q5sUTEf8A4+W/3m/rV/Sup/3lqg//AB8t/vN/WtDSQW3Y7EGh7CRvN1k95AKJAuX4H+sA/Ck3L83XlwR9KGIy3B5fPTtTuPcXq3/bTHB7U5XbCfM3LEcMajBAYHn7+enanLj5CTjDMTSBolS7uAq4nl5RuBIfy+lYniGaWe4t2lkeRhH1ds9600IATkcKw61ka2QZoMEHEYBobbQlFJmXSikpRUFC04U2nCgCaOr8FUI6vw8UAXV6Cnio0ORUgoAWiiigAooooAUdaWkHWloAKWkpaAFFJcf8e0v+4f5U4U24/wCPaX/cNAElx/yDp/8Ari38qr+Dre1uDcrd3Rt1Ea4YDOT6VYm/5B8//XFv5Vn+F41kuEjddyM8YI9s1tQaU02Z1U3BpOx0z6RpzgY1KMktjDovTPWoX8OWxWRku7N9v+x1qpeIkc1yFUDbIVH0zS3kEVvdvGinCxqRk9CRmuqVWnezh+JjGnUtpMsv4UcMwSS2O1dxKSMvHP8AhUY8LXykBASWXcNtz2/GoZYRCtqVZ/3sW9ue+aUCSO2tZhPKPOLggN0wan2lB7x/Erkq/wAy+4tW2hamrE+XOQw4G5WqQ6ZfqQfJlOf+meabaS3SWsc4u5QGkKAbugFW1vb5IY5Vu3wZDGo9KV6D7har5FM2lyvWD8TERSKkiKB5afTkfzrRTVNSjijlFwCpZo1yo4qK7vLm6tYGnK7QxVCoweOuaTVL7LY17S/vJFQF/wDngPwYUlwxW0Y+RJn2xSDt1/zineYI1BdN6c5XPXiinuEziro5S4PPJ7/7wpNP/wCPa6+gp94y+VOu07txyc9twpmn/wDHtdfQVlU2RcOp1GluoswGKj6nHaroIJBHqOh9KPD62Dae32pplfPy7ACOgrUNnoknS7df96IVUaTavcUqiTtZmdyQBg9AM/jmhyOnIzn9TmtFdK01yNmpRDp1Qjr1/KgaJExHlalbkHH/AC0I60ewmL20SgCu7IPGSf1FWJnV9hXn5m/U1aGg3B/1d1A3/bYf1FQT2U9i6JLKq7xuGMNx+FHspR1Y/aRlohtgf+Jmn4/+gmvOdW/5CVz/ALx/nXpOnFzqWPNjbrwU56V5rqoYajcgjkOwP51VTZCjuaWk/wDHva/9dGrswRuP1/rXF6R/qLX/AK6N/Kuxyw6owP4Vzo19SaLiRMc8j+lPkP7xv89hUMbjzFyrD5h2p8jqJGHOc+hHpTD5jr85MOfQ1m/ED/kC2H+9/SrtzKsjRZljU88E4qn8Qcf2RYgEH5h0Oe1a290z+0cxZf6kf9c69DtbmWKwhKSOp8tejEdq87tP9Sv+5XfwD/iXxf8AXJf5ViW1csx61fRjid2B7N8386rTXstzcwFggxJ1VACfrUODTY/+PiMdxJVx3IcEZvjpidUsP+uTf+hLUHhGc2uuQTCZ4Sof50GSOKk8cn/iZ2Jx/wAs2/mtU9D/AOP1T7N/KnPoOPU9RPie/UoE1i3k/wCviAj9RS/8JHdXC3NtOtq32oY3wucDHtXE3B5X1wav6R95CeuTRHRmcoX3Zx2usF1i4hwNwOc/UCrs/wDx8P8AX+lZ2vc+I7j/AHR/IVoz/wDHy/8AnsKhmyGUUlLSAdijtRR2oGjN0jnxffLjIMDcfgK6fS3LQzZPRx0rC8LeX/wn9x5sYkTymBUnGeBXeXltYQ2rPb2skEjOvXoRQFzgfDkvkXutN1PmKOmf4mre8QzebodwcY/d5/8AHhWV4OsItS1nWLaScQoSDvb1Bat7xbp50/S5oBMkoMJIZOn3hSew7kmkSouhQKWw3lHt71n6QSPFmoFSQREMEH2FXNL067k0OC7SBmgERBcdsVk25ZNd1Ir18len0FTYC7fMTrukseT57E578Ctq4ZTf2JVAgN7EQB0HNc/dMRq2lNnOJX6/QVrJI0k+nM2Mm7hPSiwH0Vnk/WjNMzyfrS0AfIJb5gXBZQeRnGRiokKm9nKLtXCkDPQZNSMeD9f6VFFxdS/7q/1q5omJhSf8fDf7zf1rW0I2yuPPR2UuA4TGSPbPfNZMg/0lv95v61o6P/rV/wCui/zpp21Fa51LR6SrlGt7xWWTaR8vA9OnWla20cOVZL1WD7SNik/T61Dd86pcf9fI/nUl1/yGJv8Ar8H8619rpsifZebEFppAcL5l6rbypHlc+w69actrpbYAurlSSQR5J6/nTRxrY/6+z/OlszjVY/8Ars/9aFVX8qF7O3VifY9OYDbqE2SpOPJbr6df1rA8RQwwXMCwXJnUx5LFSuDnpzW3p/8ArT/17y/yrntb5lt+Sf3dZymmtioxae5mUopKUVkaC04U2nCgCaOr0PSqMdXoelAF2PpUgqOPpUgoAWiiigAooooAUdaWkHWloAKWkpaAFFJP/wAe0v8AuGnDpTZ/+PaX/cNAEk3/AB4T/wDXFv5VT8K/8fkP/XSP+dXJv+PCf/ri38qp+HGEVwkj8KjIxPoAa1pfETPY0r8/6Rd5/wCep/nU2p7f7Qk4b/VL39qr3brJNcFTkPIWX3GakvpUmvJJI2BXy1GfcCqm9RRWg+627NP+9/x7f1qN/wDkG6d/vyfzondXWyCsCUg2t7HNMZ0axsYwwLo8hYemTxmo3KL1sM6RByP+Ph/5VKR/xLov+vhv5VDbMv8AZcCZG4TuSM9AakLKbKJMjcLgnGe2KNLBYfjGnQcf8vD/AMhRJzpVt/11f+YpN4+wwoGG4TuSAe2BSs6/2XbqCpIlfIPXqKcdxMrDoPp/hSTf6kfQ/wAqFIOP8+lEv3V+jfyropr3jKexxt10ufr/AOzUmnf8e119BS3Qwtz9f/ZhSad/x73P0FY1NkXDqdhpmTo0ZHXzHH/jorVx/wATO2UqNp8nIxwflrJ0w/8AEnj/AOuj/wDoIrWA/wCJtant+5/9BqdLFkMShra6JUEqi4Pp+8xRIifZ7dgoyxk3e/ziiA4tbzGc7F/9GCllJNtac95P/QxSuFiZoYxcXqhcCIOV56YYUyZFENu46vuz+BqWT/j51HPpJ/6EKZKP9GtP+2n/AKFVReomrDNLP/E0B7gn+Vec6sSdRuSST856/WvRdJBN+x9m/lXnWq/8hC5/3jWtTZGcdzS0gkQ2hBwRIT+lelxapfyGFTLC3m5A3xA4xXmek/8AHtbf9dDXoNscS2X+8/8AM1lGbjsy5RjLdF6HUppng3Wtk/muVXMQHT/9dDXiSOv/ABLLR95IGAV5HXv71UtG+fTun+uP81pYj89r/vv/ACFV7afcj2UOxV1GZJJ4Xit0hRl4UHcCc9eay/iEFOk2OR828dvar9zkiz/3D/6FWd8Qf+QTZj/bH8jVttxBKzsjmbb/AFC4/ucV6fa2umyaVbFrudGMKE/usjO32NeYW5/cp/u16Rbk/wBiwf8AXon/AKFWCdnsW1fqP/s2yP3NVH/A42qobRLW7jZL6O4DseEXOPrkVM5y7/70v8qrqMzg4HEi9P8AdFaRkuxNn3MTxzn+07Eggjynxx/tLUHhyCW41BY4E3yENhc9eKm8b/8AISsv+ub/APoS1F4dGbsn0RyPyFKfS449bHRXWkaojjOnysMHlRn+VTaZb3MEqrcW0sXJ2hlx/OopmKznazLg4GGP97FT2LySFGeR3IzjcxOMjPemuXohPm6s4XXf+RiuP93+grRuP+Ph+P8AOBWdrv8AyMVx/uj/ANBFaFwf9If6/wBKzZYylFJS9qQDqO1NFOoGjP0U48ZXh/6ZH+QrtIzm1OefnHWuN0AK3ja6DlgvlHJUc9BXbSRRxwZikkbLjh1AxRZ7hdXOU8HzPDrGruhwd4HTPdq3vFkrSaVO7YyYh0GO4rB8HxiXWNWVnVPnHJBPdvSt3xagj0y4QOrgRDBUHHUetJrS4dTS0O9dPCcduu8ZjPIcgcn0rK8P3At/GN7IcYEOOV3dQO1XtHhb/hGIZlKYEZyNwz19KydHjeTxXfoilmMQwB34FAtCzqbLJ4m01mVdr3LMQBgY4rYv0gj1WzW2jCRC7h2qGyBz61hagD/b+lgg7vPYEfgK2LkMt9YK6srLdxAgjB60NlHv2fmP1p1R5yx+tOqQPkB3XH3ZP++DUcLbrmXgj5V6jHrVgsVIJGcEHB6HiolbfezttVQQpwOg5NXISMGQ4uW/3m/rWhpOcs2D8pDdM1ny/wDH0w/2m/rWlo0vlNkBSQwOCMih7CNprlpZnlZfmdw5wp60st20lw07L85k8w/KetTfbHy37qDhx/yz7/4e1KbxwT+6g4k/55/549qOhPNPsV1vG+1Ccqd/meZ909adHdmOdZgDuDFuVOMmpftr7h+7g++QP3dKt6/y/uoOpH+roQc0+xXhufIbKgk7GTlT/EOaxdZYNLDjOAmK6FbxiF/dQcof+Wf+eaw/EEpmuIGKoP3f8C4HWk1oUnK+qMilFJSipKFpwptOFAE0dXoelUY6vQ9KALsfSpBUcfSpBQAtFFFABRRRQAo60tNHWnUAFLSUCgB46Uy4OLWX/cNPHSmXH/HrL/uH+VAEk5/4l85/6Yn+VZumFxG+wRk4A+diB+laM3/IPm/65H+VN8NX32GSV1hSYyRhQrD1rSl8RnVbUbpXIWaUH7lv+EjUm+YD/VwfhKa2pNUfkG0i+Vsk4689KY2ou3mL9lhBIBPHSqluRGVS3w/iZHmTEf6uH/v6aaGmz9yLB64mP+FbP9qOz5+yQZdcAY6e9C6m2YyLOD7u0ZHX3/SpHzVP5SC3aQQoNi9Onm08vJx8o/7+1pQ6gwjh/wBFg4G0cdTSjUGBTFtCcEjkdaQ+af8AKZwZ+uz/AMiCnozgf6rP/AxV9NRYFP8ARYDjI5HWoprkzwxDykjCHGU7/WqjuK8+qIFL/wDPAcf7YpJjII+Lf+E87xxQpPHJ6UqyeXKrMocBG+Vuh4ropvUUzirokrcZGOf/AGajTh+4uPwp92wMVwoUZDZ3e24cUzTjiC5/CsanQuG7On0xmFp0J57EelXPMfOdjZHTkUmhXZg09k8mJ9x6uuSOBWn/AGmx/wCXW16/3PUVmJylfRGcJXAxsbHpkf407zG4BD8e4/xq+uqNwfstrxtP3Pwpf7TYD/j3tuB/c9DQHNPsUvNfk4fJ6njn9akVywUNHKwGcY6DP41cGptj/j3teP8Apn6Gobi5M5QlI02gj92uM896uO4c0nug0g/6U58mYHB5I4rzbU2zfz8Hlmr0fRWIuSSc8Hg/SvOdVbdqFyQMZduB9a1qbCjuaWk/8e1t/wBdGrslunUoQJAUJK/L0z1rjNHYC3tT6StXoY1Rs/8AHta/9+q5kXJyWyKUNwySQ7VcbGyvy9D/AJFStcskoC7xsJK/L0zjNXI9VYyLm2teT/zyH+e9Ok1RvMb9xajn/nkP896ZPNPsZDSh7iJCsmEGBiM9zVP4gkf2bZgBh8wPK47GtG5umub+NtqJxjCDArO+IBzplnnn5xz+Brf7IldvU5aA4gQ/7P8ASvRLeb/iVQKc4+zovA7da87i/wCPdP8AdH8q9MstSZdJtl8qA4gQcxgn7ornaLba2RSN1yxIPO49D3qK0uVmuAuSOQfunsMVonVG2n9xb/8AfoVUhvXuZ0+SNNn/ADzXbnNXDcTcuqMPxuR/adlg5/dv2/2lqLQX8uYt6qw/QVL42YnUrLPP7t//AEJaZ4cmMFysgVWI3cMMjoKqp0CPWxq3F8nnHJA79D65q9pU8cm1Q3TPY+mKjn1ZvNb/AEe2x/1yFWbO7a4dDsjTG7/VrtzUx3E3LqjhddP/ABUVxj0/oK0Z/wDj4f61na4f+KiuM+n/ALKK0Zz/AKQ/1pS3KQyiiikMXOKWgdaWgDP0JgvjW7Y9PKP8hXatKr2+F/56CuK0SQxeNrlgqn90eGGR0FdpJOZoR8iL84+6oFSx3Zy3hBtusauT0Dj+bVu+LHDaZclf+eQ/nWD4QlMOr6uwCsS4HzDI6tW54qlMumXTEKD5Y4Ax3FAGhozqvhiJSeSnH51k6QwXxXfFsYEQ6/QVpaVOR4Zgi2pjb1K89fWsvSpPL8U37BVb92OGGR0FIZLfnPiDSyD/AMt2/kK2bxt+o2LZz/pcXOc96xb5v+J/pbYH+vY4A46Cti6fff2LbQubyLhRgdaAPfB94/WnZqP+I/Wng0AfIj9P8+lRRf8AHzMP9lf604vuX7h/E1Hbvuu5xjGFUH9aubuJGLJ/x+P/ALzf1q7pZ5b6iqUn/H23+839auaZIsSSO+MDB69KHsJG/wB3/wCugoJ5b/rpVEapCed3fPX/AOtSPqsORhuSc9T1p2dh3Vy9/EP+ulKvVCAfvGs4atCDw3fPfrS/2tFjv+tJXBtF9ei/7hrI1r/XQf7lS/2rGGx6fX/GqV/crcyIy9hih3sGlypSikpRUDFpwptOFAE0dXoelUY6vQ9KALsfSpBUcfSpBQAtFFFABRRRQACnDim0ooAWgUUCgB46Uy4/49Zf9w/ypwptx/x6y/7h/lQA+X/jwm/65H+VUdH/AIfolXpf+PGb/rkf5VT0fgKfZK1pL3kTPYvyfdk/3qaf9Y/+5SzZxL/vU1j87/7lVO9xRtYRfvx/7ppqH/U/U0qfei/3TSR9Yv8AeNRqUaKfcj+tOH8P+/TV6L/vGlX+H/fNAWFU/Mv+8aUf6sc/xUidV/3zSgfux/v1UdxMAOB9P8Kaf9Z/2zb+VKv8P0/wpP8Alo3/AFyP8q3p7mUzjrrpdf5/iFN084t7r6Cluel0P8/eo0//AI9rr6CsavQuG7Oo0o5sx+P8quDqPqtU9KBNmMep/lV1VIIz2K5/CoKAfdH0H/oVKeh/4F/OjaduMgHAHXvnNGM55HOf1NIdhxOCw+v86e3AJ/3qTaCD757H1pxQlTgjv14q47iexJo+RM30P8q841M/6fcH/aNel6VGU3sSvQ9/avM9SOb24I5G81pU2M47mlpH/Hva/wDXVv5V2YPJ+tcZpPFra/8AXVv5V2YZOuR+dYI0JIyfMT6j+lOkOZG/z2FNiePzEwe47GnyMvmsNp69gaYFZMm9X61U8f8A/INtP94fyq/G0YvQpX585A6Vl+PJhJa20YUrtYdT7Vs9I6kJ3ehzsP8AqI/90fyrvrQf8SuD/riv8q4GH/j3j/3R/Ku5t75F06Fc4xEo7+grA1Bs7G47Go9PBE/PtUUmo/unKhiQPQ1Pptw7XCLkZfHHcVrCMmm10M5SinbqzK8a/wDIRsj/ANM3/wDQlqPQwTKAP9r+lN8XyO+p2+5s7VcDI/2hTtDBL4XOfm6HHpUz1sOOlzSmRvOcY7+taOlowweD97vWROJN7EuV57uK1tOGxtvODEW+Y5yfWrhTfLz9CJVFzcvU43XP+RiuPp/7KK0Jv9e/1/pWdq4zrDn2/otaM3+vk+tZS3LWw0UtIKWkMWl7UlKOlA0ZmkEDxheE9BEf5Cuthuo5YSEB4kGc1yuiQPc+NLuKNdzNEcDHsK65NHvbC3Mk8YC+YvOaBnLeHJhb3+sSMu4CQDH/AAJq2/EMvnaVdMF2jyx39xWb4Q0/+0tY1e2Mqx5O7c3Tgsa2fFdilhY3EQuElHlclO3zCk9gG2FyU0i2hCrymcn8az4Jmg17UJF+8EQc++K6DSbOwk8LQXErT/aQjYCKdvfGTWZoaQSeLLxbiFZozCNyM20E4HelYVyK7djq+mNnnzX/AJCtVJGlm093OWN1CTVLUPLXxLpuyNUT7SxCg5AHHHvWzqEgk1a0ZRGAbuHAjXavXtRYZ7tn5j9aeKjHU/Wn5pAfJPlh8ZOKp23F7de23+VW7pmspPKZFLfWqNo++6umAxnb/I1UhRMlz/pb/wC839atWY3WVwdqngdT71Vk/wCPx/8Aeb+ta+g2aXkbRORtkyD+HNUSUlXH/LO3H1aj+If8ew/GutTwraADJ/8AHalHhezH8J+u2tOV2FdHGbhuPz24/wCA08yAf8tIvwTNdoPDmnpyQfyFOGjaah5KY92FCiwOIMuXI80fhHUU53Mp3E/VcV3hsNIjIJeP3/eCua8TpaJdW/2QqV2HdtOec1MlaI1uYdAOKKKxLHCnDrTR0pw60ATR1eh6VRjq9D0oAux9KkFRx9KkFAC0UUUAFFFFABThTaUUALQKKBQAo6024/49pf8AcNOHWm3H/HtL/uH+VAEkv/HjN/1yP8qqaRwucE4VTjFW5f8Ajxm/65H+VZUEjRW4KHGQoPOO1XB2dyZK5rOd24bW+Y5+lJuOSSnJGOcdKzDJK3VlH/AqN5A5kSqkru4LY0c4ZSAo2jAyRREwEsYyvynj5qztwxnzB+ApbV910gLMRnP3aVkO50HmqONy8HI570CVQR8wz16d6pBuSMOaXa5YYjb86NAuXd4GPn4HP3aVZY9uDlvwqp5b7l+T16mnLG+Bwo/GnHfRCexbEsfG1eRUUs+zzyIgcRHv7VIi9B5eOOvrVO9cILjHUxkfpXSouLMW7nJl/NhnfAG4Zx/wKpNP/wCPa5/CoIjmzk/3R/MVPYf8e1z9BWE9kaQ3Z0mnOUtcBQfqParRncEAlR+VU7Ar9n5jZzntVvkv8ttjjoagof5r4/1gH0pBMSATIeakHmjpCg+tIpmCjmJRz1xRcBBKcgAuc+xp9zL5VlJICd+35UI6mgs4YbrlF57CmagWOkzfvFZNvLY5xW9FJ3uZVHa1ixYjbbhmHJ6/XFed3f8ArH/3mr0GBwLS3UZ+Yj8sV59df61v95v51Eyomvpf/Hta84+dufwrpw+1juvkHGeAa5fSz+4ten+sbrXaxWF80hMcMK+6Qlv6VkiymrxGaP8A0uZ/mHCpUjLG11928kbPJ6Cr8WnXplQtcMvPRIwKsNod1JMXaW4JyDgtgVpDRkyV0YEYD+IYDtd9obk8BOPpzVTxwQUhx/f/AKV2Nl4Ou7yZtRDxoLVWyGY5PB/wrjPF43w23vJ/Sta2rbRjRkvhvqjEh/49ov8AdH8q7W3c/YIsSn/VLwkWT0FcUvywxr1wB/KvXdNt7FNFs2llUFoEJ/eAY+UVzJHSzjZVlNu2DcsMdlxV3T45Fubctnjt3H1NdzFP4Ysrb9/JbysB8xwXJP4Uq+KfD8LN9mtWY7Ng224HJPvXRTnZOPc5qyt763R5R4p+bUocf3WP6rVvwxaTX14lvbx+ZI2/C4zngVX8Tq8GoWxdfvxNjn/aWrvgq9uLLWoZbURGYLIAJTheRWUrm0Xpc6Q+CdWkb/j2SPcep2r/AFNXk8L3djbXN1K0Si3hw4Vsk5/Ci417WZX/AH2sWVuOwjUEj9DVKfU7mZkhbUprpZhmXqqnHTitISduXoYzs2nHc4DVk/4mjtkdx+i1em/4+HrP1rjX5lHCgdPwFXmOXJrGW5uthAcU6m04dKQxaUdKQGlHSgaKfh6Ty/HVw+9kxGfmXqOBXa3tz50CgTTSDzBnzGz+lcHpTbPF943HER6/QV1UDtInXPzgjHQUXDqYXhGXytY1Vyiud4GHGR1atrxTJ5mn3bkKMxjhRgdRWF4WQy6rq6KyKd4OWbaOrVteJ4xDpV2NysBH1XOOopWdrhpcu6VI58PW8e4+XsJ254zWXpp/4qa/BOP3a/yFaWhmOXwxbvsJcxnB3cD8KzNEldPHF6oOCIFPT2FICe+I/t/ShnrOw/QVsXYMV/Yo4wVu4h196wNbY/8ACRaOcnJumyfwFa+ouPt2n/8AX5D/ADob6DPoBW5P1qQGq275j9af5hpAfJ10Zb243s0e5iAAF4/U1VhhMN5coSM/LnA9Mip26Z/z0qGPi6m9lX+tXNWJiYsn/H4/+81amhHDZE5iJOM5wF9zWW5zeSf7zf1q7pJILY/vCn0A6zbGUzJqrk7sbQXPHrUfl2RI8y9nPzYOEY8evJ61VPV/dxSsSdxJP+sp3ZPI+5OIdNEnzNcsu4jIQA+3WkK6eGGIJmzkclRVcfe/7aUqjlfqaL30D2a6stCSwwMWTH5TyZu/rwP0rD8QSQyXMBhtxCvl/dDFsnPWtFDwv+6aydZ/10P+5SbdhqCTuZtKKSisyx1OHWminDrQBNHV6HtVGOr0NAF2PpUgqNOlSCgBaKKKACiiigApR0pKUdKAFoFFAoAWmz/8esv+4f5U6mz/APHrN/uH+VAEsn/HjN/1yP8AKsVTF9mTzTxxj8q2pf8Ajxm/65H+VY8bbYF/dtJwOAM9qqImKstsMbVz9B/9antKm0hY8e+DSh5j922I+uB/M07F2ykCOMfl/QVQhBKSflt8/h/9erFmbk3AxCqgA84/+tUYivSMGYL9M1asdPupJSS7vkYwE/8Ar0AWR9p3Nyq9KCJT96dfz/8Ar1oQ+G9RmPy2d2+fRCP6VoR+B9Wkx/oDgf8ATSTH8zRYDnTGMjdNn6ClAh7yk/Q12EPw81JyCyWsY92z/IGtCL4dzKB5l9Cg/wBiM/1xVxVncT2OLQY24bK44GMVm6gw3TnP8J/lXqEPw9s5HxJqFwSByUVR/jXm/iW1j07WNQsondooSVUucnGO9dF7+8c3MlP2fXc42A5sZD/sD+Yqew/497j6CoLUf8S+Y/7A/wDQhU9j/qJ/wrnnsjoh1Or0e0ubi2Jg34BwQiFu1bCeHNUlbIt7thjr5eK3/hnqlhY+Hrr7ZeW8BNxwJJACRtHbrXVXPjLQIyMagJcD/ljG7fyAqCjh4PAusTReb9jk2A4y8oFXYPh3ekDzRbp7s5NdNJ8QtKWyaOO3vZWL5/1YQY+rH+lZU/xEIOLfSxnt5tx/RRTWoXEh+HeMGW7hX2SPNX0+HthLthnvJmRjggAD+lY8vjbXZhmG0towehWF3P6msa98V+JUlVptRntdwyqwwomR69CaqKdzObTTVx3ivRrXQ9YtLWzaQxsu8mRsnv8A4V5LPgtMeOrfzr0cXLapqEc1/cXN1KOA80hOB1rzrUURL24VDwJGA4960qrqZ0FJRSk7s09IcKlmScASkmvernxjpEVswt3lkkC4HlwHH5kAV892EgSO3BGQGOR6816aL62RyY9MgJ6DzWLGudG0m1sjQk8QCSVBFavjd1eQD9Bmh9U1GSRhFZKR64Zv8Kpf21ch4wvkQqDx5cQH+etU7/Wr6d2Rrucrnkbsfy+pq7on330Lw8Qa1p0U1tJJHAJxyDbjdjkcZNcl4yiWLSrSRJHLFxyeD0rQkJ3KcsTg8k5NUvGvGk2fu4/lWr+AmEVGV+rOdU/6PF34H8q9MsJNOTSLYtBNI/kISS4UZ2jPSvMFb/R4voP5Gu6trgjSoAo6QqOfpWCNZJM0pdQt4oyY9OtzzwZCX/rWfPdvceUSsaKG4EaBapF2bknNSoCVjAB+8P51cb3IcI7mf4wP+m2P/XF//Qlqpo74v1/3W/lVrxllb2xyMfuXP/jy1l6NIHvkJzjDdKKm6HA39xOeTV2yf54snuaZDaTXBxb2Usme+DirUVnPZ3cQuEjjJzhRgn8fSnCMt7aBKUe5x2uN/wAVFP8A57Cr3YfQVk+JH8vXLgj1/wDZRWsPur9B/Ks5blIWlHSkpR0pDFpw6UlGaBoztHYp40umGDiI8MMjoK7Dz5JoxvckB+AOAPyrj9IVn8Y3Sou5jGePwFdasckSfO0fXO1WyR9aLu1hNRvqcv4Y/wCQrqv+8P5tW54oYNol3g5/d/1rD8LyKmq6q7RrIoYfKx4PLVteKJTJol2+xUynRRgDmoGW/DiuPCVq+FC+URktjPJ6CszSSi+O78vuK/Zx904Parfh7P8AwjdkTwPL6k+5rLs5xB4y1CVlLAQKMD8KLDLesn/ioNEK8D7UxAznsK09TmZ77TmYksb6EnP1rG1hy2s6MwGD9obAH0FXbkSrPpgkDB/tkBO7r1p2A+kSxycnv2o3D0ph+8frSUgPk9/u/j/Sq0X/AB9zf7q/1qwYyzKDK3JAyeMVBGgS8nUPuwFGfXrVzdxIxm/4/X/3m/rV/SBu3cjqM1nv/wAfz/7zf1rV0FoAw86JnXfhgpALDsB+NNK+hN7GsHjy2X/iB/ChpYwTzn5t3FXzLYQvsGmMXWQDDzfpxUj3aRXBhXTbVXWbbhiW59PpWvs4dZk+0k/smUsq5GEP3s9DT1ZuAsTEjmtNb+4F6sEcVpGwmKZEIOD+NEOo30l3HALkoN7KCqAeuaSjTXX8A56nRGcsF24+S1kIAPO09KydehuIbmBbiJo2KZUMMZFdBb3l3cPte7nwIXbAfHQcD6VzutyPJPAXZmPl9WOTUyVNR929xpyb1sZlFFFYmg4dKcOtNHSnDrQBNHV6GqMZ5q9D2oAux9KkFRx9KkFAC0UUUAFFFLigAHWlpMUtABQKKWgBQOabcf8AHrL/ALhp46Uy4/49Zf8AcNADpv8Ajyl/65H+VaHgbQrfX7q4huJXjSKBXBTHPOO9Z83/AB5S/wDXI/yq34H1/wDsG5uphZyXReBU2o4TGDnJJqoibsejQ+AtFiPzieX6v/gKtx+FtEgP/Hih/wB8k/zNcvP8R75j+60q2j95rhn/AEArPl8ca1KSI5bWHP8Azyt84/OtbXJvY9HttK0yFh5VjbA+0YP9DWjFGsY+SMIPZdo/pXj8mveJLkYOoX4GMkIojGPwFNistWmUG5e5cyfMpmuCcj86TVkT7SPVnsUt9aQZM13BFj+/Ko/rWdceK9Cg4bU4Cw7Rksf0FeZw6SGKmSa2iDAnLc4o8rTITH52pk5B3CJelOKbF7WPQ72bx5oqDKm6m45KwYH/AI8aybj4mRjItNInkwPvSTIgP5ZNcY02msyFhPL1DDOBntVWaWB4IvIt/JwQGJP3qIsXO30Or/4WNq4YmOwsYwQR88juf6Vyt8lzrd5c3Usy+dOSxSJOOnbJqkvb/PpVm2z8xU4IjbkfSt4diJwXNzdTk1hMNrcAZKD5AfXDCm2rbYpB6kU9idl2Pf8A9mqvC2HA9SKwqdDaHU7nwwtlJp073Fw0bq2FCpkngd62vN0xGAaO5mGeBnb24rk9An2WEnBP7xv/AEGtBrpiQAMcp1pc2mgnC7vc21vrWOP93psX8J3SNn2/U1GfEE1spEAgQj+5GD0PrWGZHdRuYkbR/wChU1+jD/f/APQqV3e4eziaVxq9/cN+8vJcAkALwBz/APXqtOWJUs7scsPmOehqIk7j9T/MVLNzt/3n/wDQqqL1BxildIs6aM3a/j/KvP8AUP8Aj/ufTea9E0pczluwH9K871Af6dc/9dGrWo9EKO462bCxeoP9a7s3DEnbge/41wFtyE/3gP1rvB5Qb724+1cyZrcWNiZkJJPzDr+FEhzK2D6fyFPjIMqCOEtyOv8An2q9/ZupTyMYrUqvqVwPzOKtQlLZEuUVuym4J24BPFUvHSlNHsMjB3/0rVltZbWdIppdzMM4jYEDnuRWZ492/wBl2WAQfM9c9q2atCzM73lc46OTKBfRT/KvRLOMvp0Kx27SN5Sj9K80gOZGHbYf5V6vbX94ujQKLhkRbZCFjAX0XtWEVFv3jRuVvdIU0jUWAcxJbpjrIwX+dRzWotpIwbtJnZ+VibhfxpsmWZt7M5BcZY56DinqgMgAHR1/9BrWLgtEiLSe7MTxuAL2ywMHyH/9CFZfhOaSLUI5oyAyLIRlQew9a1PHH/H5Z/8AXB/5rWT4TXMmc8lZAPyWpqaNNFRVztpry6nYrNcyuAcY3YHXHQVHZoDcQ4HJPP5UxpEDMxYdc4HPfNWtOBadWKMEHQtxmlGTb1CSUVoef+Kxt1ucepH/AKCK2sYwPQD+VY3i3/kNTd+R/IVtyDErD6fyFRLcaG0o6UlKDSGLTh0ptLmgaMvTePFl4fSI/wBK6y0QmNyeBurldODDxPelPveScfkK6PTGkMb+Y7OxYdaBnOaHIlvd6xLIGIWReF6nLNW5r0vn+HrlwmwGPgZz3FUfCWnNqWr6tbAhQzbiScYwzVs+J7aCz0q6toZxNti+Yjsdw4qbCuUtBtZ5dLsnSNmjWDkjoOtR6ZbW03jO9F3IY7f7OpZgPpWjp+p3Vp4YstPtxjKEvheSCT3qva2bHxFqKSgoxhXg9ccU7DI9SEcmuaU9tkxrcsY9w5wAKuzrfXd1Z3t4p5v4RuPGeegFbKeFLi8k0qTTYC/lTsZmZsBQQOf06V32leD4ViVdRWK4AkEipg4DDofwoYHZsoBOfWmlGPTj61YUd8cnqaR3SJcuQPQetSB8iseB/ntUEI/0yb/dX+tTsCQeD+XtUVtzeTcfwr/WrmJGHJxeyf7zf1rQ0X/WL/10X+dZ8v8Ax/y/7z/1rQ0UfKTz8pB4BNHQEdJdf8hOb/r4H86fcf8AIYlA/wCfofzqo08ksrSFCXZ9x4Ayfzp+27ncuIXZ2fJOM5b8qG9BXiupOD/xOh/19n+dFqdupo7HC+a/J/GoxYX7bSU2hmONxxz36mkFi+0GS7hQHPVx/wDXoQc8e4lm4jkJcgDyZBz6kcVh6xxNDzn5K3BbWw+/f54ztRWPPp2rG1tIEnhEDOylMkuuOanWwKabsZdKBR3pcUigpwHNIBTxQBJGKvQ1Sj61ehFAFxOlSCo0HFS4oAKKUCloAMUUYpwFADaKdijAoATFKBS4paAEplwD9ml/3DUoFMuP+PaX/cNABN/x5Sf9cj/Kq3hSaxW4uDfxvJGIgFVT3zVqf/jzl/65H+VY/hxj9okwey/zrWl8RnVjzRsdY+oWCQhYNMXerZMjDqM9KibVJ8yCOCKMEZPHIqnL92X/AHqQnMj/AO5VVG3IzjRjYuTarf3TgyXGCyY+UdvSoVvZ2WMSTSPkkct0HpVdQd8X+4aan/LH2Y1N2aKEV0JTIZAu7nL4xTBwUOB/rKF/5Z/9dDQOq/8AXQ0iiSEkzQ+nmGkJ/wBEj/66H+dEPE0X/XU0h/49U/66H+dVHcT2IR/D+H9Kt2o/cyn/AGCP0pn2fKr83JA/pViGIpayf7h/lXRAykcY3S8+v/s1Vof9cv1qy3S89j/7NVaAZnWsKvQuHU6HQhmwb/ff+VaQGSMc8p29qztAYpp7fIWPmHkKOOPU1rqLiYgRRlvYZb9F4/WpSlLYttLcjEb+WMjHyjqcfxZpxhzn5hg56Anqc1eg0PUpiCYzGMjltseM/makOkWcZVrvUoF6EhcyH9eP0rRYeo+hk69NdTNLQqxBbkknr6n2zUu7fjEMjck+g55PWtKNtFh4SK6uuMnJ2L19qhvAkzQmC2S3jAI2qfvYPJPvVezUNb6hz82y0LWmoVXG2NGI6Zya8x1BSLy4LdfMYH65r0u1+UnjnB7+1eZ6h/x+XH++f6UVNgjuJacmPPTzBn869RSfT4yFt9OeVj0ad+CeewrzOwTckR9ZcV6HAfntP95/5msoTcL2LcFLcuxardvJAtutvbJLJtHlxgHtn+dV5Zp7qWPz7iV/MZgQWPYD/GorQ/PYcf8ALU/zWpI03i1bPQtn8hTlUm92CpwWyI4EBFu4GMqc+5zWZ49YHTrIf7f9DW3BC4ggXbhlBzntzWB47I+x2q5Bw/Y+1X9m4tLnG2g3TyD0javUYhnS4gP+fZR+teY6eN1xPn/ni39K9Vhsx9kia4vIolMakDOWxj0HP61zluSW5ScqCSzAAs36irFsVkYkBjyO2B0xTimnW5zHBLcP6u2wfkOf1qQ3BlVFEUUaKchUXH5nvWkNyHJvRLQ5jxxze2mAP9TJ3z3FZ/g9YcAzhyn7zITr/DVzxid11Z/9cZP5rVTwsuYcf7//ALLVVAidcL6CAFbeziQj+J/nP+FWra5lnKtMxJAOPQVmR2zvIflJGa0IQsYO5xwOQOtTBaicYpHnvir5tZl+o/8AQRW7N/rm+v8AQVh+JyH1aRxnDEYz/uitK4u9tw42Z59falLctE9KMVS+2qP+WZ/OnC+TurCpKsXKUVVF7Cf735U77ZD/AHj+VAIm8O2qT+MJFkYorowJH0FdReXWnxzixtIm8wON0jcfhXI2Bd9Tle2kKOyNhx1HSuk0jSVe8V7mZ39h1P1JpMGYPhySeOfVJbYKZHcrz0xubNat1o8v/CP6hNK/RAdoPJ5HPoBVjw14e1KTUtRjitHjTzPld1KqRuPQnrXpWjeF/sqFrx0kBHMe35T9fWmBw3hnTrq8sLJ7a2d/kHzgcdfWu6svBFgupvqV2rPcyoFdC3yce3rxXR26RwRLHGiooGAFGAKn385oBhb28FtCscMSoo7KKsxgA5zxVKW7jhGM7n/ug1Ve9eQ5LYHoOn+f88UAbEmoKo2xYY/3j0qurSXMmNgdiOvpTIBKyGWeTyoQOWPUill1Eg7bddiZ5JHLfX/OfXFIdz5YKRlgGJ2k8kknFJZoi31yE+7tXBxjPJqzHBvG5uBn8+Khs/8AkIXP+6v8zTkhI56X/kITf77/ANa0dEmaLBABw2QGGRVCYf8AEwm/33/rVzSh8v4igGrnSm/ucNiRVxID8iAc+tRyXU7khp5T8+Pv1Fg7m4/jFKVbJ4/5aVNxKC7DeWPzZPz45OaFPKnvuNOA5HI4fPWkGBjLHgk9KOYqw1clVz/cNZmqjMsP+5WmXjVRluikckdazr90lmQpjAXHFFxsz9tLg1LtpQlIRGFpyrzUgWnbaABF5q7CtVkXmrkIoAsqOKlApqCpBQAgFLS0UAGKKXFGKAEopcUooAbSilooAKjuf+PWX/cNSVHc/wDHtL/uGgBZ/wDjyl/65n+VYvhrm4m/4D/Otm4/48pf+uZrH8MLmackgABSST71pTdpEy2NyX7s3+9SE4kfjHyVI21gwBLbmz8o6Co3ljQtnAzx8zAcfSnJ3egRWgicvD/ummxqT5OAfvHNKJgfuKSMYG1eg+ppplkZuVA4x8z/ANBU2bG2l1JBGVCFjj5i3JxxQFXKnJPzFuBT4bG8uSBFDI2emyPH6mrsXh26l2GZo41YZBlkz+grWOHqy2Rm61OO7M/zI48NkbgSwywHNOEiGIBY2bnI2qfz5rUTTdMtVVrnUFywOViQVVupLIxRCxEoIYCRnJOTWnsHDVv8SVV5nZL8ByhyoKxqvHc1Y8l5beVPM+YoeFGO3rVeJchM55A/pVnGLaXr/q26fSnDcJnANHtgumzkbio554YVWt/9cKst0vP8/wAVVrf/AFp+lY1ehcN2db4XvIrXS5d1lFNIznbJIM44HFbzavqUs6QrJHb72UARrjAYVzeir/xJU/66yf8AoIrZX/kJ2v1g/wDQapVpqKinoL2UG7tEfmTXMM0k08jlFU4Lcff20hjRYYSqgFjJk/RxinQL/olzn+4n/o2lmGLeAenm/wDowVm23uWopbFkYF3fAcACQYH+8Kmdc21v/wBtP/QqhUH7Zd8cP5gU9idwq4I8wxLlRt3ZOfU5px3CQkS7QxxztP8AKvL9Q/4/Lj/fP869XRVEbEFm91HFeT32fts+cffbgfWtJ/CjOO5d0lN0Vv7zkfpXdKyRNGWcBoySB65NcZoy5itsnANwcn8K7oPpluCESWdv++F/xrAuUuUgR/miSKNjtPynpg8f4DtWilheSc7BEh7tgD9f8Krrqk/mKlvHFApOPkXnr6/jTi7zHdK7OT/eOfT/ABoSJvN+RO8CQOqh1mJGSwJIBrmfHTbrC1JUZEnb6GulVcAGua8cjGm2n/XQfyNdF/cJS1Vzk9LXM9x/1wb+leiRgCJfXFef6QM3Fz/17t/SvSFhVI90kgUYrnubWIQM1OiHrtJFIJ4lH7mMyHrnHFOaWRmiXJAY8gdPwrWnFvUzk0tDmPGK7bqzHfyZM/mtV/CZZYwygE5fr0/hqTxSP9Mts5yUf/0Jak8JxcKpKjl+WGR/DU1HdjibrmWUHLlsdk4H51IABOo/6Y+lb9l4Zvb3B+zv5Z6POCi/gvU1Y1DRrPS7S9a7uQbxFVIl+6BnHb/GtqMlZqxjWfK1J/1c8j1+Iyakw9P/AIkV6LD8Nk1CzgvF1CRGnjWQr5YIGQK4XVyG1d0x2J/Ra9/0OL/iQ6dkf8u0f/oIrnkdETzWT4VXH8Gpof8Aei/+vVWT4XaqP9XeWzfUEV7J5Q9KXyR6Uh3PEX+GmvL937M/0k/+tVV/AHiJOfsaN/uyivePJUdQKBH6AAepFAXPEtF8Fa7HqIEtmYVZGHmMwwPyr0HR/BotWEl1OXPXAHFdfHEAemT6mpdlAXKscax/Kq4AGBxUwJxipNuOvH1qrNcAZEfJ/vHpQIkeVYlyzY9Peqc95I4Kp8g55HU0MxdtzopPHX0qWK18wb5IwiAE5ycn3oArxSTyOFjZix54/n/n9ath47RMTMJpcDC9gB0yf8fyppnjjUxwqQpGd44JPrz29zUBEGcnzFGQck9B3PqP5+lAEz300jZk2sVbhSuQCR+f9fpU1rG9yf8AVReWMAuV9Ow559+31NLbaasgV33hefkIwSP6D2rUVdoAUAAcAD0oA+X5GwMAVn2bA6hc4/urn8zV1Yy3AGazbUldSvfqtDdxoy51/wBNkPrI39auae628TO4OFweBUcy/wCkg+sh/kauWkAkgmySOByPrSGB1Xd9yGVuc88VGdQuT0hVf95qmFpGepkb8cVKlqi9IR+JzRYWpRNxeSdJUUey05YJ5eHmlOfStOK2lkbbFHk/3UXJrSt/DWsXRGyyuMHuV2j9cUCMBbGJTuZS3u7cU24VdyhQoAH8NdnD8P8AUpfmm8mP/fkz+gzWL4p0FtBuLWFpUkMsZb5FIAwcd6GNGBgUYFLRUjExTh1pKWgCRatQ1VTrVuLoKALSVLUadKkFACgUYpaKACiiigAooooAKKWigAFMuR/osv8AuGpAKjuf+PWX/cNADbj/AI8ZP+udZPhiCeea5SBZGbaMiNNxxn9K15/+PKX/AK5mqPg29u7O7uRaMFlmRY+Rnqa2oW51zbGdW/I+Xc3U0C/m2s0ThS2MzSY5+gqf+w4bZZDcXsEbJ/Cigk/nVS7urxvNWa5kOxsbM8A1FcW6Q3LpkuVjBBPXkV0yqUYv3Y39TGMaslrK3oaTf2FA7DdNdfL8uScbv09qautRQsn2PTYo8gqCw6n1qk6LGLMquC8G5sdzS9bHTx/tyfzqfrUtoJL5FLDx+07ll9V1OWGJhMI0LGNdg5HrVV1doopZZnfMpTaTwMU/IXT7bH/Pw/8AKm/8uMP/AF9N/KsZVpy3ZoqcY7IbsU20EgHzNcMpPsBUsaB9Otzj/ls/P401Rmzt1H/P0/8AKrsUYXS7cf8ATZ/5ipT1GxkS8L/n0qaTizmP+wf5UijgfT/ClnBFpJgfwHt7VvDczkeek/8AH4Pr/wChVFarl3PoKlOc3vp/9lRYLlZz6KKyq9Cobs6bRYi2jRhQSfMckDtlRWoSBdRSqQdnlkjqcqORWbo0E8lioiQt3OE3Ef0rXOlOP+PuaOIZI/ePu7Z+6OKz1sN1Ix0Kqukasm7cWABXOTw27oPegSSEhUjwecBjjqc9Bk1bEmmW4AHmXONp2j5FPtx71LFqEqIRbwxW6gfwjng9f1oshc8n8KFtNNvJBuZSgPdvkH681beCO32hTHK7DJIydp9OarF5JCTJIzkZ6n3qVeFx2yw/WriFpbtjzI2Rz0BOPwrym+Ym+uR23tXqakEvx0BFeV3ozqN1/vt/OtKnwoUd2bGigfZ7X/r4b/0Gun5LHHr/AFrnNEX/AEe1/wCvhv8A0GuzS2wdzEAZzmsDUggi2spPXI/9lq7FGWAwCRgfyFRie2gYAHe2eMc/56UrXM7sNoEadMt1qld7A7Flo9sYDsoFcp45lRrG2WMk4l6kY7VuTOG1CBWdhgEgAdfc/wCTXP8AjQYs7f8A66k/pW004rlMotN3Rh6Kv7+cnvAf5ivQI4NyGQxHr/rJmwo+griNJjADk94P8K9X0jwzd3yRSLboocDE122AeP4VHJrnNTCigaZCEWSb/dG1BUsVjPdXEa2sZldAdwj5Cj69q70eFtP02IS6teLIgGT5h2Rj2CDr+JrMv/FmnWUht9NjVoxCU3MBGufZRW9KWvKc9dSUeaK1PLvE8e/ULYc8RsT/AN9LWt4FvYNK1OK6uI2eNBJ8q4BJIGOawPE1wRdWTMwG4MOPqtWbRPMsJAuMkkckgfw+lZSNY+Z3+r/EeebdFBIttF0xF8zH/gX+Fckuoz307kNJ5ch5DnJY/wA6pwaarMPMk3D+6gro9KSG1dfJjjV+m4/MRUptbDaT3OL12xuLLXzJONm+AFUPXGOpr6H0VP8AiR6f/wBe0f8A6CK80v8AwPqHiO+W8tp4o4gmxmnDEls9eK9W0+3Npp9tallZoYlQtjAJAxwKBku3FG0kcD8xUwQdepp2KAIRHj3PrS7PapttDFY03MQBQBGE9jQzIgbJGQMkE1E87NkKCgHXPX8fT+dRYx0GMfN6Y/Pp9Tk0AEqSyE7ipAx8oYYGfr/M0w2shONnf8j/AJ7n8BVmG1aTDcqnY46/QHp9TzUjTRwr5duoxnl+oz7f3j7UARLapAu91Mjdgozz7f4mq8vmSn5gcZwFA4z/AFPueBUhZssS5HPzEnv2zjv/ALI/GpI/Pkk2xsxYHJDH7p9W/wDiRQBSEW4qFBZmOQByWPtnqf8AaPA7Vo22niPDyAF+oUchT/U+5q9FB5aAMxdu7Hqak2UARqnHSnbKmCcdads4/wDrUAfKiuiYyeO1YcLZ1G8I6FhXUeK7uwm16WSyeM2+1QvlrgdBnH41yVq6veXTKTjcOv40noNCTD9/H7uf5Gup8I6RFrFyLR5Wi37izAZ4XB6Vy83+tj/3/wChrQ0y+nsrqR7ed4X243KcHBoQz1KPwTpFvzKZ5cdS7hQfyp5j8Kabwy2Kn/bbef615nPqMs5JmuJZT/tOTVU3I6Kpptisepv400SzXbBvkA7Qw7R/Ssy4+IKkkW+nk+hlk/oK8/8AMmPRCKawkx80ij6mi7Cx11x461aQHy/IgH+xHk/ma5rWNSu9Ulilu7hpnUFQTjge2KpHyx96XP0pjsjAbAcA96TGMA4oxT8UYqQG0uKXFLQA5Rg1bhHFVlqzD0oAtJ0qUCo06VKKAClxRRQAUUUUAFFFFABRRRQA4dKiuf8Aj1l/3DTweajuj/osv+4f5UAE/NnJ/uVneERjUgf9tP51oTn/AER/9z+lUvCYxfg/9NI/51pS+JEz2Ni+XM15/wBdT/Opb5P9OkOf+WS/ypl6f3t5jB/en+dSXuXvJWXlfKUbu2cVVRpMUdRs2ALAf9O9R/8ALhp//XST+dKzK32cDJMMWwgDOTTDMkccUTEYjyVBOSCevArPmLHjmwth3+0vShc2sUfRhOz88fL61D5rgYRGA7E4Qf41ZtbW4lI2qSe3lr/U0tROSW5LBGqwRqxztkaXIHr25qdGj8tYwCQpJCrk8mpotLOFaZ0jVgTl23GpHEMcUfkyl2yA/HAq4rUh1E9EMAfjbGqD1Y1Hcp5sMkZk3ExscDgdKcCSASf88VBOVaGbBIOwj9K6Ke5EzgNirFdkFepG0dR8wp+mjMN0f9kVGBl73/P8VWNNXFvd/wC6KxqPYuHU6XTbiaHTkijkKIwJOO/FSKDJKCcsd0fLHPWmWEe60iz0w3/oNXoowHXA7x/yqSlFb2Io4sRjPPyr/wCh1Z28P/wP/wBCFEUZZFwCflH/AKHVkQZ3biBkt09zmkOwndvq3/oQqXohP+0386aZ7eI8kM3Jx1qO4vX8gtGVQ9gwySa0hFt6EyaS1Jo42C5OAD615dMBJqU5U5BdsV6QfMYRtIScEda82iGdQcf7b06j2RMF1N/SE2wWw7+cx/Sukxuk/eSNK2Pup0rn9PG1IBx/rTwfpXVx20u4CRxEDwFT7x/rWS1NCIAoygbIB/301SrExw8ULvyP3kvArf07wnqFwVkisvJTr5tycE++3qa6O28I2cCm41CUyqvO6c7Ix/wEf1q46EM8/XTrm6uA9rG8oQFpGRSRj3Nc34yw9pbYIwZOD+Fev6l4n0qx0ya1sB552lf3Y2IOMf1rxXxZMz6dAx4Ik4x9K0qu6TfUxouXNKNtENsFCRkf9MsV6ZP8Qbi006Czs0itzHEsZfG6Q4GM+1eZaU2+AZ/54Z/lV17aa4uJRkKu89eK5zoL194mubqUyF3mlP8Ay0kYtj6VHaC5vJBkF3Y/dUdKbBZW0TZcmVvQdBW7aTKmFiIGf7gwPzpgY3inR4obG2nmkDXKOAEU5C5I6+/FRaZkWTcZbc3bP92u6Twi3ie1ELM8MKNvMo7t+PWun8OeBLDRG80s9zKCdrydFz14pDPPNO8NaxqbKYrR1jP8cnyiu+0LwJHalZL6XzXHO1eFFdkkQUcAVKoxVCIVgSJFSMYVRxxTtp9f0qQigLSAZhvanDPcUySVIzjOXxnaKqPK0o+YjaRwByM/+zfyoAtNcLtO1hnO0E9M/wBahZGZmYyqxB2E7sHP9PoKjPVieOOcnGPqe30FSw27ykMfkTHDY5/Adv50AH2eQZxg7em09D7en86sRW6RgO+GI5CgcKfYdz7mkM0VupjhAJHLc8L7sareY7OCWcs/GQCCw/2R2HuaAJppJpvlKuqHPynj8WPYew5qHnK4DZK/LgbTj2/ur79aBO4Ut5u1R8hYHKr7KP4m96u20c74eZiq4wEOCT7sfX2oArW9u05UqdsY4DgYx6hB/WtOKGOGMRxrhR0FKFxjrTse5oAUdKdim8+tLz7UASAVXd2nkaCJtqrxJIO3sPf+VNllklkNvAcN/wAtHH8A9PrU8SLDGERMKKAPj2adWI7VTskdJZ3ZSA7ZXNTZJJJxk+lKnelYojmP72L/AH/6GlIzKSGI4HSmTD99CAM/P/StSx0DVdR3SWtlI8YwC5+UD86AKAPsfxNP8+XswH4V01t4C1efBkMMQ+pati2+GvT7TesfZFA/xpgefl3PV2NNwpb1r1q2+H+jw43o0pHXexNbVr4f0y0H7m0iX6KBQB4tb6Zf3JAgspmz3CYH51JfaZeaZ5a3kRjaQblBIJx0r3VbeOMfJGo/CvOviYoGpWH/AFwb/wBCpAcJS0uBRgUWQCUuKXFAqQHLVmHpVYVZiOKALaHipRUCtxT99AEmaM1HvFJvoAlzRmoTJR5g9aAJs0ZqAyCk82gCfNBbFV/OpDNmgCxuqK5b/RZf9w0zzaiuJf8ARpP900AWZj/ojj/Yqv4dKwGSVmC7QrAltuCKVpN0JXP8P9KueF7EXjzKZY4QkYcvIM4+nvWlNXkZ1JKMbsna5LligZyzbi0adT7k1FvkZsEorenMjflWlKumw/62Z55Fb5hnAxn0pn9ocSx2tqsaMuTxggUSSRKqSl8KIE0y6nyGSUgLuPmNtGPoKsR6fbwlPOuUjUruKxDBzxxn8aZ5lxcSRmeb765IXjj0oiRcQHGSxOe+aQcs3uy1FJZQGNobYyydCXOcn8aeL25kWNQ4RQxUbRyPWq0YyIv+upqRP4P+upoGqcV5jkyxTcS2ZCvJ9KkT/Urx/H/Wo4/vRjv5xxUsQHkLj/np/WqRb02EJ2rn6f0qpL/x7PzjKt/KpXfJAB6f/WpsyN5LjbgBD1+lb09zKZwkY3T3g+v/AKFVuxTbbXXuBVa3wbm6IIIOen+9V63GLa4+grCe6Lh1Oj0qPfZrz93P6irxe3gGWYZ475PHSsi2LG2C+YUTuM09QgcbELtUlGgdQJGIYjj1bpUJkkmGZZuPQcVHg4/eSBR/dFPhUsP3cef9o0ALwoBRO/U0kgxaySEB2A+92H0qU2jSOgmkxzwg5J/AVv2HhS/1ERQiBbS2Y4825+Xd9FHJropS5TKrtcxIADbqwORxivO7YZ1J/wDeb+teta9pKaHeR2aStLiMOzsoXJJPbtXktq4/tKQepb+dZ1VZjozU480djorDmS2HPMvavcRDoPhmLfPJDby4yArb5T+PX+VeF22Q0JBxhyc/hVi51YuxKlnY9XY9ayRoen6n8R1jjZNOgESD/ltcHc3/AHz/AI1w2p+LLjUZd0k8tw3bcePyrmSZblwWLOe2K0rXTJch32r7njFO4EzXUs+DIcfSm6zotxe6SsjHy4oyX5HLcdBWxZW1vbgSBN7D+Nzx+AqxqVvNf6fLCgMk8i7Y1zgfhRcDjtLj2B04AWE9fqK1p/8Aj4cZyNxxWlongXXriURyWot0KbTJIwwPwHJr1XSfCOl6cisLdJZ/45XGcnuR6UWA8t0vw5qupkfZ7RxGf45PlWvQdD8BRWpWW+fzn/ugYUf412SRqoG1cCplHFOwEaQRwxhEUADge1PWnYoFFgFA4604CkFV3ulG4R7Tjq7fdH49/oKAJ5HWMbnYKPeqklyzsFXKhhkDHzn39h9aFuWLRhlDZGQAMO/uB2H1pBMhT5ooyC2ZGVhtH4/xH2FICIEYUkrs6ZzkE/zc/pSqrs4UKxfoRxnH+0R90ewq1HEk5aTymQnhWPBI9R6Cnq0FsyQKFUseFAOSfU/40ANjt0gUSzFTs6cYVfoKjlumlwse5UcfLjh3+g7D3NDeXKXmNyhCHau7GxD9M8ml+yHcQJc5G5s/fk9iew+lAFYYIP3dq9TjKRn/ANnanAFmC7XLSj7h4d/dj/CvtUos5/kIEO4H5SB8kI/2R3PvV6C3jtlITJLHLMxyWPvQAy2tPLIklIaXGBj7qj0UVbFAooAWlBzSUooAWoJpnaT7PAf3uMs2MiMep9/QU2edhIIIMGZhkk9Ix/eP9B3qWCBLePauSc5ZmOSx9TQA+GJYowqDA9+pPqfepKbmjNAHz1p/w2Qndf3MhGPux4X9TmtqDwFo0PHk7/diSa6sLSheaB3Me18OaZZ/6m1jU+u3mtJLeONQEQAewqxtpQtAiHyge1O8s/3jUwXFKF4oAhCn2/KnbT6VLtpQvtQBHx6H8q80+J//ACEdPx/zxb/0KvT9teZfFIY1HTv+uL/+hCkxo4KiiipGFAooFADgcU9W21HRRYCfzjS+cfWq+cUZoAn800eaagzS5oAlMpNJ5hqLmlAOKAJPMNHmH1pmKMUAP30m403FLg07AO3GmzE+RJ/umnBabMp8h/8AdNFgHjlT/u/0q5o0e9yh+6QoYZ6iqqL8pP8Asn+VaGh/678Fq6XxEz2L0kKLHPwPv1IVAll/65CnTD93cf79BH76X/rkKcgjsJGP3tv/ANc6IRhbf/eanIMPAQOkZp0cRVYg3ylSSR3qb2HZiRj/AFf/AF1NPTJ24BP700ZjiRS3Zi3zcc1E+oRIMJlz6LwKLgWUjIK7iBiQtj1FKXhgjAkfb8275jz61mveTvwuI1P90VTcq75dt7elVFaibRsLcRgAxJlfU96rXjSvbTs7dY26fSmqWVUXIXjOAKLklrK4JP8AyzbH5V0tcpitTitL58z/AHB/OtWIhYZfesrS/vSf7g/nWmP9TJ9K5ZdDVbs17TDRgbCx7VfjtZpDnARMdeg/OrnhbRrnUbN5YjDHEsm1pZTnBx0A713lh4QtB+8mWS6kH3WuPlT/AL5FNDOK0/RpbtwLO2lumzjcowo/4EeK6iz8D3bIpvZvKTP+pteWP/Aj0rbuvEOkaGPLkvPNlUYEFuAQv4Dgfia5LWfiTdSbks1jtEIwGPzP/gKQHYRaXo/h2AzSfZ7M/wDPVm3SH8T3+grMn8fWNvKy6ZbmUjOZ5yQP8TXlk+vS3U253kuJCeXds1C91K/G4AegpqVmKUeZWZsazq1zq+q+fNOJOABt4AHoK84tj/xNm+rfzrtrG2muJMqvyg/M5OAKw7nSI7CZW5eRiSz9hz0ApSlzO4oQUI8qLtn9yH1Lt/KkhtY0bMxyO4FOs+Fhz/fbp9Kk5aTaFYsegAyTSKLEcyR8W8KqPUipVd2bLtmtLS/CWr6kVKweTGf45Tj9Otd1o/w+s7YrJdk3Dj+9wv5UWA47SNJvtUlUQREr0MjfdH416ZoXhiHTQJXAluMYLsOB9BWza2cFsipGgUDoAMAVaPIp2AjVAvv+FSAU2nCgB46U4U0UjyLGu52Cr6mgCSoZbhImVD80jdEHU1VmvWKkjdEp4B25dv8AdH9aizmUx5yduWjB+Y+7N2+lAEkkskysG2soPKq+FH+83r7UmcHflxxhG29f9xf61Fw0atiJ1B+90jX/AHR/EasQ27zF2+eNW4MjH53Ht/dFIBqhmkEYUliMtH3Pu79vpVqK0VArTFHZDlQFwqfQf1pXkt7CEA/Ko6BfmZv8TVOWWSaby3AYkZW3U/qx7fSgCzNeFx+5OI+8x5H/AAEdzVXlQFKS/Mf9X1kl92PZfamKSdrgxMUODL0ji9kHc0HAjfImjjkPGDmWc/0FADiclzuhJj53Mv7qH6f3jU9vbG4ywykMg+aUn95L/gKlt7NpCklwAFUfJAB8q+59TV8cUACIscYRFAUcAU7FFFAC4HpSj/PNJRnFAC49zUM87RlYosPO4yoPRR/ePt/Om3FyYtsca75n+4mf1PsKdbweSGZm3yucvJj7x/w9qAHwQ+Qp5LOx3O7dWNTbj6Gm0uaAF3exo3CkpM0AcUFo21LtowPWgCMClxT8egJpdhPtQAzFLgdyKfs9c04IAOlAEX0BNLtPsKl20u2gCEIc8mvMviouNS03/ri//oQr1PAHNeX/ABTZW1HTtrA4hfODn+IUho89opcUbaLDEpM0/ZShKLAR4pcVKIxil2UWAhxSheanEdKI6LAQ7aNtWRFmniIUWAqhDThHxVoRCnbBRYCr5VKIqtbBRsFFgKwi5p3le1WAozTtopgVvKFMnj/0eT/dNXNlR3C4tpf9w0mBH5eIz/u/0q1oQzcHHov86YwxAx/2P6UaRdJaNKz7uUAG04704OzJlsbckZKygkLvbIJpWCIWc8ZGMtwMfSs2TUpHP7pAgPc9aqu0khJeQk+9N6sa2NOTUIIxtUlsDGF4FVXvp5OIlEa+tVVwPujP4U/5m6nHtSAPmLEyOWPuaeDjhV/GmDaM8ZoCzztsVSF7Y60CGyuWYCRyqjoAakh2qN6x7iOhPrU8WnKJF86Tcc42ICzH8q6Gy8MaldKsn2dbGAD/AFlz97HqFq0tSWc+BtYEkl26k9Kdd8Wc4/6Zn+VelaJ4Q0+CUTXEMt46gnzbjhfwXv8AlXCeLzHDquqDKqBuAUfSumTvHmOaNS1X2Xlc890r/lqfRB/OtEt+7ce1ZelN/rh/sD+daIBMb+wrkfQ6luzvvB/imLQdDnjW0ae5km3KSQqgYA5PWqmteN9Qv9yT3ZSM/wDLG3+VfxPU1yM0kkcKIjYBGSBVaNHmP3ST/epDLk+qTSZUfIvt1qsBJK2Qd3rmrcGmuQTIfl9M4/z+lWlFtbgAncfQdKAIbe1b7sakk9TWrb2UUZBnO9uyDnNUxdSN8qL5a1PE5H8RyepoA1Fl3KFI2qP4F4rD1W1uLnU0NvBJKoTH7tScGus0Tw3e6qUIBgt+8rDnH+yDXomnaJZafbLFbQDA6uf4j7nvTsB5T4f8IarqjxFoTbQq5LPOCvGOw616rpfhrTdMUfZrVM93I6/jWtFEigAAcdscD8KnAHWgBiRIBjAP4VKIx6CgU4HimAoTHdh+NBVv75/EUuaM02gEAYf3TTgxH8P5GoprhIMBtxZuiqMk/SqMk8k2UljYtn/j2hfnH+03apA095IygOexxkfpVZoJCyuZQZOhZ+i/Ren51TUgsqphjFyMZWGL8R1NOW5cRSSpdkRucNcS/dB9EWgCcW8qhtrPweWBDSSe2ewpDFKP3ZhznlYV4Ue7N3qWH7TM0ZICwqOTKoMkn9BVmV4oIy8jBFHfdigCOCyUFJJ9ski/dA+6n+6KJb7LGK3G9gPmkP3E+pqE6gqRNJLHLGpOI1OGaT6LTmmtWaK1dBuk+YQmPkfUDpSAqiVRHJOLgou7D3cq8/RB6UpIG0MpSJxlYB/rZvcnsKuA2s1wzgxPJCMHD8J+B4FItnGUd4pJPMk6zgh2I9Ae1AFUq5dUMKSzqfkgQ/u4h6n3rStrNYXaV2MszdXb+Q9KS2hgs4vLiQoCckkHLH1JqwHU9GX86AJKKbk04UAKKdTaM0APqC5uBAqhV3yvwkY6sf6D3ptzdJbxgkF2Y7URerH0H+eKba27IzTTsGuG4Yjoo/ur7fzNAD7aDyt0kjCSeT77jp9B7CrANJiigB2aM03NGaAH5puaSk3UActs9STShMHpUoWkYpHyzKPqaAG7aULTHu416Ak/l/OmG5JwPuH1xmgCfb7U0soB+YcdQKqsryn/AFu7PYnFM8p1/hOM4GOeaAJ2uwpwEJ+vFR/an54GPbtT0t7lh04PXf3p7RW6jE0il/RB0+lAFRmR/vM/sSc5rzn4loBfaeA24eS3OP8Aar09JbVWISLJHdhk15t8T5DJqGnMWQnyW4UdPmoGjgtgFLtFHOadtNAxMUCnhTTwgoAYBmnBM1IFApwXFADAlOCU6loAQLTgKQHFLmgBaOKKKAFooooAAKdSZozQAtR3P/HrN/uGpKiuT/osv+4aAHS/6h/92qlr1f8ACrch/cN/u1UsSd0mBngUhMs4Y9gPrQwUD5ic1PHazTH5QfwqZLaFX2Oxkc/wRDcaYiqu9hwtTrZsRvmYIo7scCuhsvDuozqrlI7C3/56zHLfh711Wk+FNJiYSvDNdyjnzrgfKT7L/wDWppAcJZaTJeMBZ2ktyT0bbtT866Ox8Iu74v7k4HW2sxz+LV2t5f2Wkwb7q5itowOAcD8gK5DUPiHbxhotKtgxzxJKNq/98jrVAdDZaHaafAPs8EdoB95yAzY/3jwP1qjeeLdE0pyIGa+uvVG3Y+rngfhXnGq6/e6oxN7eSMp/5ZqcJ+QrL+1bRhAPrS5hWO21Hx1qN0HVZBaQkY2xfeP1PWuJ1Sf7QLmUMzbozksck8VG0rufmNIYmmgkReNykZPQUObceUlQSlzdTntNcLNIpPJTj861o/8Aj3m+lRHS4bN1dWJcjBPapkwLeb6CpuaE0keTG3HC+lPjlaLO3k+9D/dX6UkUcksgjjjZ3PRVBJoEDSSyffc49BTlwPr710OmeCdW1AhpEFtH3L8t+X+NdtpHgTTrPa8qG5kH8Un3R9BTswPP9L0PUdUYfZ4G8vvI3Cj/ABr0HQvA1va7Zbr/AEiUf3hhB+Heusgs4oVG1Rx0wOKtgU7AMit0iUKFBx0GOPyqYnNANJVIBQakFRU8GkwHg07IplVZL5DI0NviWVRk9lX6mpAuPIkal3YKo6kmqUt88gOzMMXaZxy3soqoGeVzIsizsOC5OIo/w7mjc+DIjqzKfmup1wo9lFMBwaONd26SATdzkzSHp+FOwV2wHIwP+PaJgXYf7bVGJFXdKuYYW+9cSH9459FFTW1s86EJG9tCThif9ZKPc9hSATEjN5exJnHKRIMRx/7x71oQ2Y3LLckSSgcf3F/3RSxx29lb7UVY4l5JP881UmvJbuMm3lEFsRn7Qed3+6KALVxfrFKsEatLM3AVBnHufQVSDs92xEq3F0g5ycRQg9/c1CW2xbiptrM5Dlh+9mPt6U1nVYAJ4jBb5/dWyH55f94UmBMjSMGeCdZG/jvpQCF9lFKGCxuyqYLQ/wCsmbPmTH0HtVeYxgQi7iO448qwjGdp9WxWnbWDm4F1ePvmAwiD7iD2FAEVtZm8i2yQG3swflhB5lHq351rRokaKiKFRRgKBgAUlH40ASUZBHIzTM0Z96AHbV7KKUDjgsPxpN1LmgB3zDo35iobm5+zRb3+Y5wqLncx9B70T3UdtEZZDgDgAdSfQD1qC1hkeX7XdD96RhI+0Q9Pr6mgCS2ilEhublQ1wwwApyI1/uj+p71a3+zD8KTNFADvMTu2PrxShgehBpmaQhT/AAj8qAJc0ZqLavpj6GjB7OaAJc0maiO8fxA/UUhZ/RT9DQBzDTSMuS5x+QoMhABfBzxkgZ/pWq0MT53Jgnvjn86VIIkyY0UH17/nQBmrD5o+SJhnuOn69akbT9vLSqqep/zirEsd433XGPRPl/U5P5VSeKRcGRG3HpkHJ+nU/wAqAJjBbooIR5s9Mcj+gqJ7x1XEaJGg4z1/wFRqzBsLu3+gJ3fplv1FW4obp9pMagDoZABj8OT+ooAqG5lK4kOVPUt3/kPyzSEw87o/Lz0wcAfn1/KtQadHgFshu5Q4z/X9aljtIojmONVPrjJP40AZIsmlBaIttHTcuM/nx+lecfEy1eHUNODkcwucAk4+YV7BivLfiwP+JlpuDj9w/b/aFA0edBOelOAHpR82egP0NLux1BH1oGLgUtN3D1FGfSgB1KDzTMmloAfmim0uaAFpaSlzQAopabmkzQA/PvSZpKKAHUtNzRmgB2aiuT/o0v8Aumn5qO4/49pf90/yoAdIf3Df7tT+G9PutQuporO2FxJtBIJwFGepqu5/cN/u/wBK6H4cfZhqOoPdzLFElupJeTYD83fnmhbgzdt/B8rbW1G5Zh0FvbLn8z0/Oun0/R4bNFW3tYbdQck4DSH6noKxtR8eaXYKYdOiNyw4GPkjH9TXE6x4w1PUQRNdFIj/AMsoflH445P4mquTY9H1LxDoekyO8syzXI/gj+dh7Z6LXH6r8RL+43JYhLRDxn7zkfX/AArgpb1mzjhf73p+PSqzlzyTkHv/AJ5P6UrgaN1q8k8rSTSPNITyztk1SaWWckK31HTH1/wpEiaTG/I9+/8A9arMUPy7Y1wPQCkA1FKrgsW9Se9SJGXOFUkn0qeO1VfmlbA9Aak+1Ig2QIM9zQA6OzSIb7hx/u5qQy+au1cJEOmB1qrtLtukO8+nb/69WIo5Z5Vht42kmb7qKOaAM++P+kKvAULwKhUEwyKoJJAwAM5r0PT/AIeeenmajIxkP8MbbVX8cc10ek+EdL02USW9uHk/56MxOPxP9KdgOS8OeDTqMAudRjnijz8iEY3DHU98V3mnaLp1ggS1t4x/tAYH59TWrHbhQAecdug/KpwoIwRTSAZHEoAzhsdABwPwqYDtTRGoPT8uKeEIPDH8eaoBwFPFM+b1U/UYpQzDqv5GgB9FN8wd8j6igMG6EH8aAHiobi7itgN5JY/dVRkmorn7YziOAJGp+9KTkj6CqKpLH5hjEkCf8tLmbl2/3RUtgSz3Mkh2XOUDcJbRHMjf7x7Ux2XCQyxsH7WcBz+LGmLIyReYj/ZoBw1xOMyy/QUodEgZ/L+x2T/xknzpT7CkA9lSSUW8m2aTGUtoxhE/3iKVd8k2Qy3V0h2hFbEUP1HenW1q1zb7Ejks7bPK/wAco9SeorThhhtY9kUaog644/M96AI7eyKuZLmQzzE5BYcJ7KKddX8NoVRsvK33I15Y1Vmvprj93pwRl/juGbKJ/wDXqnGZl3x2TMzjJkvrhen0oAkuJtzo17G8k5+7ZRHdj3NEgQ3SRzEXF31igUfu4seuKjgl3s/2FVSA/wCvvZPlLfSiBo5IJY7XzLazXmS8bG6T1AzzSuBKnmC5Zo5FvNRxgjd+7gH0oQXCyNHbN9qvHyWupB8keewplrCL2DyrAtbWW7EkhXEkxHv6VtWtrDZQLBbxhI16AfzPqaAG2lnHagufnnb78pHLH+lWwfem5pM0ASZ96KZk0uaAHUZpuaM0ASZqOe4jtoWllbaijn/D60yaeOCJ5ZXVI0G5mJ4AqnbxyXsy3lyjIinMEDdV/wBtv9r09KAJraKSeYXd0u1h/qYj/wAsx6n/AGj+lXs1HmlBxQA/NLmmbqM0APzSlvSo80bqAJAaXdUe6jdQA8nmkzTN1IW4oAoJfKwyyZHqvI/PpVmJopgShz7gf1pyWFvGd3l72/vOdx/WrGz8vSgCHZ6HP1owcYx+VTbaNtAECoqjaFCj0AxTsc1Lto2fh9KAGbRRtFP2kZ5/OovOTdhfnP8AsDNABtrz74keHNT1eazubC3EyQxMrgOAwJORwa7/AHTOOAsX+9yf8KY1sj/63Mvs3T8qAPm64tbm0crPbyRsODuSoNzduK+kZtLtJ02vCuPTFYN/4B0a8JP2ZEY90+U/pQB4XgHrzTsYHBIr0vUPhWBk2V1IvoHwwrmrzwHrdoTthWZR3Q4P5Ggo5nLDuDTtx7gj9anudPvbNiLi0mix/eQ4/Oq2c0AODA96dTMjvijA7cfQ0gH5oyaaMjoc/UUZPcflTAdk04dKZuFLmgB1GabRQA7NGabSg0AOqO5P+jSf7pp2ajuD/o0v+6aAHuf3B/3f6VUtnEQdj04qy/MR/wB2qbIGjxnHfpmgTFmuWcHy8Ad8VVDOx4y3t1/+sKlXygcbtx+uasRIjg7m2gdqBFYW5JDEkfqfzqxFaY+6uM9z3qQ3EEP3VyfeonuZpBgfKPyoAsbIogfMcEjsKY14MbYUx71V25+8STT8igBxLSHMjZ9qlXgYHFXtM0G/1QjyYSsZ6yOMAf4132h+DbW0Kyuv2iYfxt90fQUWA5PR/DF7qhV2UwwH+NhyfoK9F0bQLTTItttDuc/ekbv9T3rWgs0QDdzjt2q2owKqwFcQ9PMO7/Z7D8KnUelLilAwaoBRTgKUdKUUAAFOoAzSjii4ABS4qC6u4rSLfITz0VRkk1mz3k52y3cn2WEn5YFG6ST60mwLk2ooJDBaoZ5x1Cn5V+pqJdQJZYREtxc/xiH7q/iaqmRY7ci5jWztX+5DGf3rn8KH8tbEebvsLfPESffl+vekBopfW0l0LeMszgZYpyq/U9KmiuIpneOG4V2T7wHOKyJI0FvGGlWysW6RgYkc+9TRWFxcDygos7Ifwxn55PcmkBqFY5gGKxygHg9cU1rWBrkXDwbpQMBjzj8KfBbxWsSxQoFRRwBVK51X98bWwT7Rcnrj7qfU0Aae8euPrVG5spr2YCW4xajny4+Cx9zVU6pPGEtIwt5f/wAYjGEX6mrDapCt3HaLGZrg/eEQyE+poArPYTzRslxGIrKMfJa2xyX+pqOUymNLm98y2tYz+6tIvvP9a1Be2pvPsiykz4yVXnH1qZZY3do1mRnX7y5yRSYGHLOfL8/U1SO2I/c2SrlmPqat29nJqKpJqEIiiQ5it1JAA/2hWi0KPIsjwxu6/dYjkVIGx1BoAeuAoAAAHAA7UuaZvX1pc0AOzRSAilzQAu6lzTc0ZoAdTJJFiRpHYKijLMegFIzqilmYKoGST0ArMQHVpVlkBFijZjQ/8tj/AHj7eg70ASwo2pTJczoVtkbdBCw+8ezsP5CtIGmZpc0APzRmmZpQcUAOzRmm5pM0APzRmmZozQA/NG6mZozQA/Ipu6kzSZoA0dvtRt9qccAZzx61EbiPOE3SH0QZ/XpQA/aKae/pTf8ASH7JEPrub/Ck+zITl90p/wBs5H5dKAG+fHnCZkb0QZ/XpR+/fssY9/mP+FWAMDAAA9qMUAVjbqx+ctJ/vHj8qftAGAAB7VJigrmgCEjNIVqYjim4FAEWKMeop+KMUAMwKRkVh8wB+tPK0FRQBRm061nBDwqQfasK/wDAujXpJa1jDHuBg/pXVY+lJgCgDzG/+FseCbO5kT2b5hXM33gDWrQ/u0jnH+ydp/WvdOKQoD1XIPqKQHzddaXf2RIubSeL3ZDj86qA+hr6Ul0+3lBDRLz7ViX/AIJ0e+BL2sW71C4P5jFMdzwbPrS4Feo33wsgfJtJ5ovbO8fka5m++HusWufK8qdR6ZQ/r/jQFzlOnejLegP0q5daPqVkf9Isp4x67Mj8xVLPOKVwuLupdw9RTc89KOD6UDH02Rd8TJ/eBFJj0JH40oz6g/pTAG+4R7VTmhjkQB1yAc4q4T8pyDVVunSgTIgqoMKuB6Dik5PU4HtS5FSW9rcXknl20Lyv6Iucf4UCIwoHQc+tGcsAOtdZpngO9uiGu5PKTukY3N+fQfrXZaV4U06wx9ntxJIOshOT+LH+lAHnmm+F9T1EqfKMER/jlGCfoOtdro/gmztiruhuZR/HJ90H6V2MNiij5gD7Acf/AF/xq4sYAwKdgKVvp0USjcA2OgxgCryIB0FPWM1IEx2oAYFp22nhacFppgRbaULUu2l207gMC07bS7aqz3mA6WkYuZ14MauBt+tFwJ2ZY1LOwVR3JwKoT3N5O7R2sXlRry1xKOAPYd6pXCOjq+pb7u4f/V2sIPlj6miWVoJI5dRmJmH+qsbY9PrU3ALaRyZFsS0jH/W3k5+UfQU6KZpX22ardTJ9+8mGFX6U6adkUvqpjWNxiOyjALH0zRKYzYf8TKMWdtn91BE+GYe4FFwCKSCW/wB1pCbq4ziW4J+SP3GeKSFYGvZFt5DeX3P7+VcontxU0di+o2kSp5ljad4FQBn+prVt7WG0hEUEYRB2H9aAKVppQSX7RdyG5uT/ABN91foKvSyxwRNLK2EXknrVa/1AWahY4ZJ5m4VEGRn3PasmSV7OdbrUpnmvCMRWcJ4GfWi4Esl5c6ihkSQ2FgpyZn4d8egpIblrkM1rFHbaaP8AWzSDBk+lNmnaFGn1to2En+qsgoJFEzRy2az61GLeFT+5t0cgsO2VpALaPDPFNBYxPa2QHz3ecFj+PWktljntZINIk8iJDia5deW+honSK9sorq9eSzsE6W2AN3p05NPNjNqojWOVbfSQMpHFkM496AGQwsYRb6IY9jHE14zZbPetbT9Mt9OjIiBLty8jfeY1Zgt4baFYoY1jjXooFSUAFGKKKACk2r/dH4UtFACYI6MRRlvUH6ilooATc3938jQXwMn5QOpIpayXc6zKYoyRpyNiRxx57D+Ff9n1PfpQAu86zL1xpyN06eew/wDZR+tao4GABj6U0IoUKqgKBgADoKNo9CPoaAHbqXdTMHsx/Hmk+b/ZP6UASZozTNx7qfwpN6jqcfWgB+aM03cD0INGRQA7NGabkUZoAdmjNNzS5oAXdSU0nmjNAGsLZCcyFpD/ALZyPy6VJgAYHA9BUmKTAoAZijbT+KbQA3FJin4pKAGYoxT6QjmgBmKQin4pCKAGYoxTsUmKAGEc0mKeRRigBm2kxUmKbQA3aKbj0qQ0mKAGc+tJ9RTyPakxQAzj2oKhuoBp5GeopNvpkUAVZLG3lzuiXmsa+8HaTfAmS1iYnuUGfzFdDhh70c+hoA83v/hdaNlraWWL0AbcP1rmr74d6rbZMLxTAdjlT/hXtv40hUN15oHc+dLrQ9Ts/wDX2Myj+8F3D9Kz+VbBGPY9a+k5bKCX70Y/Disi+8J6ZfA+bbRsT6pz+dILngZOQe1S6dpN1rE7QWoTcq7mLnAA/rXqd58L7KUk27SRZ/uNkfrV3RvCltpIZbG38yU8PLnOfq3T8BQI47S/AFupD3bvM3cH5V/Lqa6+y0u1tkEVtAGA7IAqit+PRmPM/wA3+yv3f/r1cSyCgAKAB0AFO4GQljkDzOR/cXhf/r1bWDAAHAHbFaK2wA6U77OB2ouBRWGniLmrnk+1L5ftRcCsI8U7ZU/l0bKaAh20bam2e1NcpEheRgqjqScAUARhcVFNcQwMqySIrNwqk4JNV7q4v5pRBp8AAYZ+0ucqB7VlIFhumis43v8AUP455R8kZoAsXK313vNwzWVmvVU+aSQfhVaISNbkWyLp1gPvzyf6x6eJRaXYLSvqGpngIh+RKkluPs2f7UkW5uJMbLSNQwU0rgRW0szwGDTAYbRc77yc8n1xmpIboyzhdNiWaRABLeyrge/NOujFJYq2sKIVDZit4nIJHYEVMLF9UtIQrSWdp3t1XBI+tAFeFrIakwsonuLl/v3Gdwj+hNXrTR44rg3NxI91cE8PJ/D9BV63tILSERQRqiDsP61FqF/Dp0HmOHdjwqIuSTQBYOFGWIHueKxbm8vr+d7axiaCJf8AWXEo24+lVZ/NuEF5rcxt7Ycx2qHDN9alS5u74LdTSfYNNj5Ct1kFAEFvOYi1jou+eRjma6kPyg98VIbv7OVtLQC/1EDBmZRhPxp9vctqDsltbJBpYB8yU/IW+mKSze3mMun6SkkSY+e6UZ5+poAbPNa2N5G5t/terPjKxksFPfr0pZobO01Bbi/ne4u5CBFG4BEZPTgUltFDarPa6Q8c2oY/eTSHn8DV/S9Ejsybid/tF4/LSNzj6UAQRaNNd3pu9WkWYqf3cS52rW3twMDoKWigBtFOxRigBtFLikxQAUUYooAKKKyrmaTUp3sbRysKHFxOv/oCn19T2oAbNI+rzPawOVskO2eZTzIf7in+ZrUjjSKNY0UKigBVXoAPSkghjtoUhhQJGgwqjoBT6AFpKKKACiikPWgBaQ0lFACFQew/Kk2gdCR+NOooATB/vfpSZYdgfoadRQA3fjqrD8KN6+oFLR2oATOe9L2ppRfT8qTb6Ej8aAOkpMUUUAIRiiiigBDxSfhRRQAlFFFACGkxRRQA3FFFFACYoxRRQAhHNJiiigBCM0mKKKAAjFJRRQAYpM44oooAMUmKKKAEIBHSk2ehIoooAAjE8YNQy3KxyeUqF5TxtzgD6miigBRbtKAbh9wPIROF/wAT+NTqoAAAAA6ACiigBcUmKKKADFGKKKAEpMUUUAGKQ8GiigDM1PWYdOdYQjSXD/cQcD8TWZdq0ca3WtzFg3+rtYvu/iaKKAFIuLm1F3ey/Y9PTBSGDlj6ZIqa2vbnU2M0KpBp6HDs/wAzOB1FFFADLG4tri5ltdNtvJiIzJOp2tn2ptrFbQXE1tp779QAy09wpP5UUUAXLHRY4ZftV2/2q7PJd+i/QVqkc+9FFAGFe6zJJd/2fpyB7gnaXbgLVaS6Gh5iMkl3qE5yQ3Cg0UUASXDJZWaXGtqlxclsxIFzt9s0ksMV/YxanqqyRxoMiFHypHbiiigBJLdtbgilS4EOmAZ8pEw3FJcW17cOum6fGtpYgZaUNksP50UUAbFhptvpsHlwJyfvOfvN9TVqiigAooooASiiigAooooAKTFFFAGVe3MtzenS7RzG4XdPN3jQ/wB31J/Sr9tbRWkCQQoFjQYAoooAlooooATFFFFABSEUUUAGKQ8UUUAFFFFACUUUUAFFFFABTaKKAP/Z;" parent="1" vertex="1">
          <mxGeometry x="258" y="250" width="119.54" height="100" as="geometry" />
        </mxCell>
        <mxCell id="6dEc_MFM6eOQR3-UoOiC-14" value="" style="endArrow=classic;html=1;fontSize=16;exitX=1;exitY=0.5;exitDx=0;exitDy=0;" parent="1" source="6dEc_MFM6eOQR3-UoOiC-13" edge="1">
          <mxGeometry width="50" height="50" relative="1" as="geometry">
            <mxPoint x="389" y="325" as="sourcePoint" />
            <mxPoint x="510" y="300" as="targetPoint" />
          </mxGeometry>
        </mxCell>
        <mxCell id="6dEc_MFM6eOQR3-UoOiC-15" value="" style="endArrow=classic;html=1;fontSize=16;exitX=0.5;exitY=1;exitDx=0;exitDy=0;entryX=0.5;entryY=0;entryDx=0;entryDy=0;" parent="1" source="6dEc_MFM6eOQR3-UoOiC-11" target="6dEc_MFM6eOQR3-UoOiC-13" edge="1">
          <mxGeometry width="50" height="50" relative="1" as="geometry">
            <mxPoint x="520" y="250" as="sourcePoint" />
            <mxPoint x="570" y="200" as="targetPoint" />
          </mxGeometry>
        </mxCell>
        <mxCell id="6dEc_MFM6eOQR3-UoOiC-16" value="Send&lt;br&gt;data" style="text;html=1;strokeColor=none;fillColor=none;align=center;verticalAlign=middle;whiteSpace=wrap;rounded=0;fontSize=16;" parent="1" vertex="1">
          <mxGeometry x="180" y="180" width="40" height="110" as="geometry" />
        </mxCell>
        <mxCell id="6dEc_MFM6eOQR3-UoOiC-17" value="Return result" style="text;html=1;strokeColor=none;fillColor=none;align=center;verticalAlign=middle;whiteSpace=wrap;rounded=0;fontSize=16;" parent="1" vertex="1">
          <mxGeometry x="340" y="190" width="80" height="40" as="geometry" />
        </mxCell>
        <mxCell id="6dEc_MFM6eOQR3-UoOiC-19" value="Database" style="rounded=1;whiteSpace=wrap;html=1;fontSize=16;" parent="1" vertex="1">
          <mxGeometry x="510" y="260" width="140" height="80" as="geometry" />
        </mxCell>
        <mxCell id="6dEc_MFM6eOQR3-UoOiC-21" value="Save data&lt;br&gt;and&amp;nbsp;&lt;br&gt;game event" style="text;html=1;strokeColor=none;fillColor=none;align=center;verticalAlign=middle;whiteSpace=wrap;rounded=0;fontSize=16;" parent="1" vertex="1">
          <mxGeometry x="400" y="260" width="66" height="60" as="geometry" />
        </mxCell>
        <mxCell id="6dEc_MFM6eOQR3-UoOiC-25" value="Return&lt;br&gt;game&lt;br&gt;result&amp;nbsp;" style="text;html=1;strokeColor=none;fillColor=none;align=center;verticalAlign=middle;whiteSpace=wrap;rounded=0;fontSize=16;" parent="1" vertex="1">
          <mxGeometry x="180" y="300" width="60" height="40" as="geometry" />
        </mxCell>
      </root>
    </mxGraphModel>
  </diagram>
</mxfile>
